<svg width="104" height="32" viewBox="0 0 104 32" fill="none" xmlns="http://www.w3.org/2000/svg">
<path fill-rule="evenodd" clip-rule="evenodd" d="M64.1989 24.6454C58.3042 29.0039 49.73 31.3261 42.3348 31.3261C31.9744 31.3261 22.6857 27.5035 15.612 21.1443C15.0761 20.6441 15.5406 19.9654 16.2193 20.3583C23.8289 24.7883 33.2248 27.432 42.9421 27.432C49.4799 27.432 56.6965 26.0744 63.3415 23.2521C64.3418 22.8591 65.1635 23.9309 64.1989 24.6454Z" fill="#C2C2C2"/>
<path fill-rule="evenodd" clip-rule="evenodd" d="M66.6639 21.8233C65.9137 20.8587 61.6623 21.3589 59.7689 21.6089C59.1973 21.6804 59.0901 21.1802 59.626 20.823C63.0199 18.4294 68.5574 19.1439 69.2005 19.9298C69.8435 20.7158 69.0218 26.289 65.8422 28.9327C65.3421 29.3257 64.8776 29.1113 65.092 28.5754C65.8065 26.7892 67.4142 22.8236 66.6639 21.8233Z" fill="#C2C2C2"/>
<path fill-rule="evenodd" clip-rule="evenodd" d="M59.8761 4.0318V1.70963C59.8761 1.35237 60.1262 1.13801 60.4477 1.13801H70.8081C71.1297 1.13801 71.4155 1.3881 71.4155 1.70963V3.67454C71.4155 3.99607 71.1297 4.42478 70.6295 5.13929L65.2707 12.7846C67.2713 12.7489 69.3791 13.0347 71.1654 14.035C71.5584 14.2493 71.6656 14.6066 71.7013 14.9281V17.3932C71.7013 17.7505 71.344 18.1434 70.951 17.9291C67.7715 16.25 63.5201 16.0713 60.019 17.9648C59.6617 18.1434 59.2687 17.7862 59.2687 17.4289V15.071C59.2687 14.7138 59.2687 14.0707 59.6617 13.4991L65.878 4.60341H60.4834C60.1619 4.60341 59.8761 4.35333 59.8761 4.0318V4.0318ZM22.114 18.4292H18.9702C18.6844 18.3935 18.4343 18.1792 18.3986 17.8934V1.74535C18.3986 1.42382 18.6844 1.17374 19.0059 1.17374H21.9354C22.2569 1.17374 22.4713 1.42382 22.507 1.70963V3.81744H22.5785C23.3287 1.78108 24.7935 0.816485 26.7227 0.816485C28.6876 0.816485 29.938 1.78108 30.7954 3.81744C31.5456 1.78108 33.2962 0.816485 35.1539 0.816485C36.4758 0.816485 37.9048 1.35237 38.7979 2.60277C39.7983 3.96034 39.5839 5.92526 39.5839 7.67582V17.8934C39.5839 18.2149 39.2981 18.465 38.9766 18.465H35.8684C35.5469 18.4292 35.2968 18.1792 35.2968 17.8934V9.31919C35.2968 8.6404 35.3683 6.92557 35.2254 6.28251C34.9753 5.21074 34.2965 4.88921 33.3676 4.88921C32.6174 4.88921 31.7957 5.38937 31.4742 6.21106C31.1526 7.03276 31.1884 8.39032 31.1884 9.31919V17.8934C31.1884 18.2149 30.9026 18.465 30.581 18.465H27.4372C27.1156 18.4292 26.8656 18.1792 26.8656 17.8934V9.31919C26.8656 7.53291 27.1514 4.85348 24.9364 4.85348C22.6856 4.85348 22.7571 7.42573 22.7571 9.31919V17.8934C22.7214 18.1792 22.4713 18.4292 22.114 18.4292V18.4292ZM80.3469 0.816485C85.027 0.816485 87.5635 4.81776 87.5635 9.92653C87.5635 14.8567 84.7769 18.7865 80.3469 18.7865C75.774 18.7865 73.2732 14.7852 73.2732 9.78363C73.2375 4.74631 75.774 0.816485 80.3469 0.816485ZM80.3469 4.13897C78.0247 4.13897 77.8818 7.31856 77.8818 9.28348C77.8818 11.2484 77.8461 15.464 80.3112 15.464C82.7405 15.464 82.8834 12.0701 82.8834 9.99799C82.8834 8.64041 82.812 6.99703 82.419 5.71091C82.0617 4.56769 81.3472 4.13897 80.3469 4.13897ZM93.6011 18.4292H90.4573C90.1357 18.3935 89.8857 18.1434 89.8857 17.8576V1.6739C89.9214 1.38809 90.1715 1.13801 90.493 1.13801H93.4225C93.7083 1.13801 93.9227 1.35237 93.9941 1.60245V4.06752H94.0656C94.9587 1.85253 96.1734 0.816485 98.3526 0.816485C99.7459 0.816485 101.139 1.31664 102.032 2.70994C102.854 3.99607 102.854 6.17533 102.854 7.74726V17.9291C102.818 18.2149 102.568 18.4292 102.247 18.4292H99.1029C98.8171 18.3935 98.567 18.1792 98.5313 17.9291V9.14056C98.5313 7.35428 98.7456 4.78204 96.5664 4.78204C95.8161 4.78204 95.1016 5.2822 94.7443 6.06816C94.3156 7.06848 94.2442 8.03307 94.2442 9.14056V17.8576C94.2085 18.1792 93.9227 18.4292 93.6011 18.4292V18.4292ZM51.6235 10.7125C51.6235 11.9272 51.6592 12.9632 51.0518 14.0707C50.5517 14.9639 49.7657 15.4997 48.8726 15.4997C47.6579 15.4997 46.9434 14.5709 46.9434 13.2133C46.9434 10.5339 49.337 10.0337 51.6235 10.0337V10.7125ZM54.803 18.3935C54.5887 18.5722 54.3029 18.6079 54.0528 18.465C53.0168 17.6076 52.8024 17.1788 52.2308 16.3572C50.516 18.1077 49.2656 18.6436 47.0506 18.6436C44.4069 18.6436 42.3348 17.0002 42.3348 13.7492C42.3348 11.1769 43.7281 9.46209 45.693 8.60468C47.4078 7.85444 49.8014 7.71155 51.6235 7.49719V7.10421C51.6235 6.35397 51.6949 5.46083 51.2305 4.81777C50.8375 4.24615 50.123 3.99607 49.4799 3.99607C48.2652 3.99607 47.1935 4.60341 46.9434 5.88954C46.8719 6.17534 46.6933 6.46114 46.4075 6.46114L43.3708 6.13961C43.1207 6.06816 42.8349 5.88953 42.9064 5.49655C43.6209 1.78108 46.9434 0.673584 49.9443 0.673584C51.4805 0.673584 53.4812 1.06656 54.6959 2.24551C56.2321 3.67454 56.0892 5.60373 56.0892 7.67582V12.5702C56.0892 14.035 56.6965 14.6781 57.2681 15.4997C57.4825 15.7855 57.5182 16.1428 57.2681 16.3214C56.5893 16.8573 55.4461 17.8576 54.803 18.3935V18.3935ZM10.3603 10.7125C10.3603 11.9272 10.396 12.9632 9.78868 14.0707C9.28852 14.9639 8.50255 15.4997 7.60941 15.4997C6.39474 15.4997 5.68023 14.5709 5.68023 13.2133C5.68023 10.5339 8.07385 10.0337 10.3603 10.0337V10.7125ZM13.5041 18.3935C13.2898 18.5722 13.004 18.6079 12.7539 18.465C11.7179 17.6076 11.5035 17.1788 10.9319 16.3572C9.21707 18.1077 7.96667 18.6436 5.75168 18.6436C3.10798 18.6436 1.03589 17.0002 1.03589 13.7492C1.03589 11.1769 2.42919 9.46209 4.3941 8.60468C6.10893 7.85444 8.50256 7.71155 10.3246 7.49719V7.10421C10.3246 6.35397 10.396 5.46083 9.93158 4.81777C9.5386 4.24615 8.82409 3.99607 8.18102 3.99607C6.96635 3.99607 5.89458 4.60341 5.6445 5.88954C5.57305 6.17534 5.39442 6.46114 5.10861 6.46114L2.07193 6.13961C1.82185 6.06816 1.53605 5.88953 1.6075 5.49655C2.32202 1.78108 5.6445 0.673584 8.64546 0.673584C10.1817 0.673584 12.1823 1.06656 13.397 2.24551C14.9332 3.67454 14.7903 5.60373 14.7903 7.67582V12.5702C14.7903 14.035 15.3976 14.6781 15.9692 15.4997C16.1836 15.7855 16.2193 16.1428 15.9692 16.3214C15.2904 16.8573 14.1472 17.8576 13.5041 18.3935V18.3935Z" fill="#C2C2C2"/>
</svg>
