<svg width="94" height="32" viewBox="0 0 94 32" fill="none" xmlns="http://www.w3.org/2000/svg">
<g clip-path="url(#clip0_835_95)">
<path d="M22.1623 17.0031C22.1237 12.9539 25.4704 11.0084 25.6209 10.9157C23.7372 8.16351 20.8113 7.78522 19.7691 7.74276C17.2793 7.488 14.9092 9.20959 13.6431 9.20959C12.377 9.20959 10.4277 7.7775 8.36255 7.81997C5.64506 7.85857 3.13987 9.39873 1.73866 11.8306C-1.07919 16.7174 1.02069 23.9744 3.77292 27.9464C5.12009 29.888 6.71816 32.0767 8.82576 31.9956C10.8562 31.9145 11.6204 30.6832 14.0677 30.6832C16.515 30.6832 17.206 31.9956 19.3483 31.957C21.5293 31.9145 22.9112 29.9729 24.2467 28.0236C25.7831 25.7654 26.42 23.5845 26.4586 23.4687C26.4084 23.4494 22.2086 21.8397 22.1623 17.0031Z" fill="#C2C2C2"/>
<path d="M36.2786 20.9829L34.4257 26.5993H32.0441L38.1082 8.75031H40.8875L46.9748 26.5993H44.5121L42.6052 20.9829H36.2786ZM42.1304 19.1802L40.3857 14.0425C39.9881 12.8767 39.7256 11.8191 39.4593 10.7846H39.4091C39.1427 11.8422 38.8532 12.9269 38.5097 14.0155L36.7649 19.1764L42.1304 19.1802ZM48.7813 17.9643C48.7813 16.3238 48.7312 14.9959 48.6733 13.78H50.7654L50.8735 15.9802H50.9237C51.8771 14.4169 53.3864 13.4905 55.4786 13.4905C58.5782 13.4905 60.9058 16.1115 60.9058 20.0063C60.9058 24.6152 58.0996 26.8888 55.081 26.8888C53.3864 26.8888 51.9041 26.1477 51.136 24.8777H51.0858V31.8413H48.7813V17.9643ZM51.0819 21.3805C51.0819 21.7279 51.1321 22.0405 51.19 22.3339C51.6146 23.9474 53.0158 25.063 54.6873 25.063C57.15 25.063 58.5821 23.0519 58.5821 20.1105C58.5821 17.5397 57.231 15.3472 54.7683 15.3472C53.1818 15.3472 51.6996 16.4859 51.2441 18.2345C51.163 18.524 51.0858 18.8714 51.0858 19.1879L51.0819 21.3805ZM63.3145 17.9643C63.3145 16.3238 63.2643 14.9959 63.2064 13.78H65.2986L65.4067 15.9802H65.4569C66.4103 14.4169 67.9196 13.4905 70.0117 13.4905C73.1114 13.4905 75.439 16.1115 75.439 20.0063C75.439 24.6152 72.6327 26.8888 69.6142 26.8888C67.9196 26.8888 66.4373 26.1477 65.6692 24.8777H65.619V31.8413H63.3145V17.9643ZM65.619 21.3805C65.619 21.7279 65.6692 22.0405 65.7271 22.3339C66.1517 23.9474 67.5529 25.063 69.2243 25.063C71.687 25.063 73.1191 23.0519 73.1191 20.1105C73.1191 17.5397 71.7681 15.3472 69.3053 15.3472C67.7189 15.3472 66.2366 16.4859 65.7811 18.2345C65.7 18.524 65.6228 18.8714 65.6228 19.1879L65.619 21.3805ZM77.8516 7.79688H80.183V26.5954H77.8516V7.79688ZM84.8692 20.6123C84.9193 23.7621 86.9343 25.063 89.2619 25.063C90.9295 25.063 91.937 24.7735 92.8093 24.4029L93.2069 26.0705C92.3886 26.441 90.9835 26.8656 88.9454 26.8656C85.0004 26.8656 82.6419 24.2717 82.6419 20.4039C82.6419 16.5361 84.9193 13.4905 88.652 13.4905C92.8364 13.4905 93.948 17.1691 93.948 19.5276C93.948 20.0063 93.8979 20.373 93.867 20.6123H84.8692ZM91.7015 18.9448C91.7285 17.4625 91.0916 15.158 88.4706 15.158C86.1121 15.158 85.0815 17.3313 84.8962 18.9448H91.7015Z" fill="#C2C2C2"/>
<path d="M19.8038 -0.000488281C20.0084 1.87551 19.2556 3.75536 18.1362 5.11025C17.0207 6.46127 15.1833 7.51507 13.3961 7.37611C13.149 5.53872 14.0561 3.62412 15.0906 2.4275C16.2448 1.07261 18.1941 0.065133 19.8038 -0.000488281Z" fill="#C2C2C2"/>
</g>
<defs>
<clipPath id="clip0_835_95">
<rect width="93.5489" height="32" fill="white" transform="translate(0.403076 -0.000488281)"/>
</clipPath>
</defs>
</svg>
