<svg width="54" height="32" viewBox="0 0 54 32" fill="none" xmlns="http://www.w3.org/2000/svg">
<g clip-path="url(#clip0_868_2)">
<path d="M43.411 22.0422C45.2133 21.8227 49.1878 21.3503 49.8953 22.2617C50.6026 23.1563 49.1038 26.9205 48.43 28.5913C48.2279 29.0979 48.6659 29.3003 49.1205 28.9122C52.0847 26.414 52.8595 21.1981 52.2533 20.4386C51.6467 19.6962 46.4428 19.0545 43.2762 21.2827C42.7878 21.637 42.8721 22.1098 43.411 22.0422Z" fill="#C2C2C2"/>
<path d="M27.0741 31.1737C33.9964 31.1737 42.0467 28.996 47.5879 24.8946C48.4973 24.2194 47.7057 23.1899 46.7793 23.6118C40.5647 26.2449 33.811 27.5279 27.6636 27.5279C18.5521 27.5279 9.74363 25.013 2.60294 20.8607C1.97932 20.4893 1.50794 21.1307 2.02984 21.6034C8.63225 27.5785 17.3731 31.1737 27.0741 31.1737Z" fill="#C2C2C2"/>
<path d="M16.0764 11.8472C16.0764 12.4718 16.1436 12.978 16.2614 13.3494C16.4111 13.7671 16.5914 14.1733 16.8007 14.5645C16.8847 14.6997 16.9185 14.8349 16.9185 14.953C16.9185 15.1219 16.8174 15.2909 16.5983 15.4595L15.5374 16.1685C15.3859 16.2695 15.234 16.3204 15.0995 16.3204C14.9309 16.3204 14.7626 16.2357 14.5943 16.0838C14.3672 15.8394 14.1641 15.5738 13.9878 15.2906C13.7995 14.9662 13.6252 14.6339 13.4655 14.2946C12.1521 15.8476 10.5014 16.6242 8.51415 16.6242C7.09932 16.6242 5.97122 16.219 5.14587 15.409C4.32053 14.5987 3.89932 13.518 3.89932 12.168C3.89932 10.7331 4.4045 9.56845 5.43191 8.69088C6.45932 7.81297 7.82363 7.37436 9.55863 7.37436C10.131 7.37436 10.7205 7.42487 11.3438 7.50918C11.9667 7.59383 12.6067 7.72866 13.2805 7.88056V6.64834C13.2805 5.36561 13.0109 4.47098 12.4886 3.94771C11.95 3.42445 11.0404 3.17152 9.74363 3.17152C9.15415 3.17152 8.54794 3.23876 7.92467 3.39066C7.30547 3.53857 6.69761 3.73043 6.1057 3.96478C5.91419 4.05068 5.71728 4.12399 5.51622 4.18426C5.39846 4.21771 5.31415 4.23477 5.24657 4.23477C5.01105 4.23477 4.89294 4.06616 4.89294 3.71151V2.88446C4.89294 2.61446 4.92708 2.41171 5.01105 2.29395C5.09501 2.17551 5.24657 2.05741 5.48243 1.93897C6.07191 1.63518 6.77949 1.38225 7.6045 1.1795C8.42984 0.960363 9.30604 0.858646 10.2321 0.858646C12.2364 0.858646 13.7014 1.31467 14.6445 2.22603C15.5709 3.13739 16.0426 4.52183 16.0426 6.37835V11.8472H16.0764ZM9.23846 14.413C9.79415 14.413 10.3669 14.3116 10.9731 14.1092C11.5793 13.9065 12.1183 13.5351 12.5729 13.0289C12.8426 12.708 13.0447 12.3537 13.1457 11.9486C13.2467 11.5434 13.314 11.0539 13.314 10.4801V9.7712C12.8033 9.6467 12.2861 9.55098 11.7647 9.48448C11.2396 9.41752 10.7109 9.38355 10.1816 9.38276C9.05311 9.38276 8.22777 9.60224 7.67208 10.0579C7.11639 10.5139 6.84674 11.1553 6.84674 11.9991C6.84674 12.7923 7.0488 13.3832 7.47001 13.7884C7.87415 14.2102 8.46363 14.413 9.23812 14.413H9.23846ZM22.7624 16.2357C22.4593 16.2357 22.2573 16.1852 22.1224 16.0671C21.9879 15.9657 21.8698 15.7292 21.7688 15.4087L17.811 2.3612C17.71 2.02328 17.6595 1.80414 17.6595 1.68604C17.6595 1.41604 17.794 1.26415 18.0636 1.26415H19.714C20.0341 1.26415 20.2533 1.31467 20.371 1.43277C20.5059 1.53414 20.6066 1.77069 20.7079 2.0912L23.5376 13.2651L26.1648 2.0912C26.2488 1.75328 26.3498 1.53414 26.4847 1.43277C26.6195 1.33139 26.855 1.26415 27.1585 1.26415H28.5057C28.8259 1.26415 29.0447 1.31467 29.1795 1.43277C29.3143 1.53414 29.4321 1.77069 29.4993 2.0912L32.1604 13.4003L35.0743 2.0912C35.175 1.75328 35.2928 1.53414 35.4109 1.43277C35.5457 1.33139 35.7645 1.26415 36.0679 1.26415H37.634C37.9036 1.26415 38.0552 1.39898 38.0552 1.68604C38.0552 1.77035 38.0385 1.85466 38.0214 1.95603C37.9951 2.09995 37.9556 2.24117 37.9036 2.37792L33.8448 15.4261C33.7435 15.7636 33.6257 15.9828 33.4909 16.0842C33.3564 16.1855 33.1373 16.2531 32.8509 16.2531H31.4026C31.0824 16.2531 30.8633 16.2023 30.7288 16.0842C30.5943 15.9661 30.4762 15.7466 30.409 15.409L27.7985 4.52218L25.2047 15.3923C25.1204 15.7299 25.0193 15.9493 24.8845 16.0674C24.75 16.1855 24.5141 16.2361 24.211 16.2361H22.7624V16.2357ZM44.4047 16.6917C43.5288 16.6917 42.6529 16.5904 41.8109 16.3879C40.9688 16.1852 40.3121 15.9657 39.8741 15.7124C39.6045 15.5606 39.4195 15.3916 39.3519 15.24C39.2864 15.091 39.252 14.9301 39.2509 14.7673V13.9065C39.2509 13.5522 39.3857 13.3832 39.6383 13.3832C39.7393 13.3832 39.8404 13.4003 39.9414 13.4337C40.0424 13.4678 40.194 13.5351 40.3626 13.6027C40.9574 13.8648 41.5785 14.0627 42.2154 14.1932C42.8888 14.3283 43.5459 14.3959 44.2193 14.3959C45.2805 14.3959 46.1059 14.2102 46.6783 13.8389C47.251 13.4675 47.5541 12.9275 47.5541 12.2353C47.5541 11.7629 47.4026 11.3748 47.0995 11.0539C46.7964 10.7331 46.2236 10.4464 45.3983 10.1764L42.9564 9.41656C41.7269 9.02846 40.8173 8.45468 40.2616 7.69487C39.7059 6.95213 39.4195 6.12508 39.4195 5.24751C39.4195 4.53856 39.571 3.91392 39.8741 3.37393C40.1772 2.83394 40.5814 2.3612 41.0869 1.98982C41.5921 1.60173 42.1645 1.31467 42.8383 1.11226C43.5121 0.909505 44.2193 0.825195 44.9604 0.825195C45.331 0.825195 45.7185 0.842262 46.0888 0.892779C46.4762 0.943297 46.8298 1.01088 47.1835 1.07846C47.5204 1.16277 47.8405 1.24708 48.1436 1.34812C48.4467 1.44984 48.6826 1.55087 48.8509 1.65225C49.0867 1.78741 49.2554 1.92224 49.3564 2.07413C49.4574 2.2093 49.5079 2.39499 49.5079 2.63119V3.42479C49.5079 3.77944 49.3731 3.96512 49.1205 3.96512C48.9857 3.96512 48.7669 3.89754 48.4805 3.76237C47.5204 3.32376 46.4424 3.10428 45.2467 3.10428C44.2869 3.10428 43.5288 3.25617 43.0069 3.57668C42.4847 3.89754 42.2154 4.38701 42.2154 5.07923C42.2154 5.55164 42.3836 5.95646 42.7205 6.27731C43.0574 6.59817 43.6804 6.91902 44.5729 7.20574L46.9647 7.96555C48.1774 8.35364 49.0529 8.89397 49.5752 9.58586C50.0974 10.2777 50.35 11.071 50.35 11.9489C50.35 12.6746 50.1985 13.333 49.9121 13.9068C49.609 14.4806 49.2048 14.9871 48.6826 15.3923C48.1604 15.8142 47.5374 16.118 46.8131 16.3374C46.0554 16.5736 45.2635 16.6921 44.4047 16.6921V16.6917Z" fill="#C2C2C2"/>
</g>
<defs>
<clipPath id="clip0_868_2">
<rect width="52.8" height="32" fill="white" transform="translate(0.603088 -0.000488281)"/>
</clipPath>
</defs>
</svg>
