<svg width="40" height="41" viewBox="0 0 40 41" fill="none" xmlns="http://www.w3.org/2000/svg">
<path d="M36.25 33.0586C36.25 33.3901 36.1183 33.7081 35.8839 33.9425C35.6495 34.1769 35.3315 34.3086 35 34.3086H5C4.66848 34.3086 4.35054 34.1769 4.11612 33.9425C3.8817 33.7081 3.75 33.3901 3.75 33.0586V8.05859C3.75 7.72707 3.8817 7.40913 4.11612 7.17471C4.35054 6.94029 4.66848 6.80859 5 6.80859C5.33152 6.80859 5.64946 6.94029 5.88388 7.17471C6.1183 7.40913 6.25 7.72707 6.25 8.05859V25.043L14.1094 17.168C14.3464 16.9332 14.6664 16.8016 15 16.8016C15.3336 16.8016 15.6536 16.9332 15.8906 17.168L20 21.293L29.4844 11.8086H26.25C25.9185 11.8086 25.6005 11.6769 25.3661 11.4425C25.1317 11.2081 25 10.8901 25 10.5586C25 10.2271 25.1317 9.90913 25.3661 9.67471C25.6005 9.44029 25.9185 9.30859 26.25 9.30859H32.5C32.8315 9.30859 33.1495 9.44029 33.3839 9.67471C33.6183 9.90913 33.75 10.2271 33.75 10.5586V16.8086C33.75 17.1401 33.6183 17.4581 33.3839 17.6925C33.1495 17.9269 32.8315 18.0586 32.5 18.0586C32.1685 18.0586 31.8505 17.9269 31.6161 17.6925C31.3817 17.4581 31.25 17.1401 31.25 16.8086V13.5742L20.8906 23.9492C20.6536 24.1839 20.3336 24.3156 20 24.3156C19.6664 24.3156 19.3464 24.1839 19.1094 23.9492L15 19.8242L6.25 28.5742V31.8086H35C35.3315 31.8086 35.6495 31.9403 35.8839 32.1747C36.1183 32.4091 36.25 32.7271 36.25 33.0586Z" fill="url(#paint0_linear_582_369)"/>
<defs>
<linearGradient id="paint0_linear_582_369" x1="-8.08288" y1="34.3001" x2="38.5346" y2="29.5984" gradientUnits="userSpaceOnUse">
<stop stop-color="#61285B"/>
<stop offset="0.432292" stop-color="#45389E"/>
<stop offset="1" stop-color="#1E50FF"/>
</linearGradient>
</defs>
</svg>
