<svg width="140" height="141" viewBox="0 0 140 141" fill="none" xmlns="http://www.w3.org/2000/svg">
<path d="M42.4648 44.8557V96.262C42.4648 97.2737 43.2852 98.1213 44.3242 98.1213H95.7305C96.7422 98.1213 97.5898 97.301 97.5898 96.262V44.8557C97.5898 43.844 96.7695 42.9963 95.7305 42.9963H44.2969C43.2852 43.0237 42.4648 43.844 42.4648 44.8557ZM52.8555 55.2463C52.8555 54.2346 53.6758 53.387 54.7148 53.387H85.3398C86.3516 53.387 87.1992 54.2073 87.1992 55.2463V85.8713C87.1992 86.8831 86.3789 87.7307 85.3398 87.7307H54.6875C53.6758 87.7307 52.8281 86.9104 52.8281 85.8713V55.2463H52.8555Z" fill="url(#paint0_linear_588_1102)"/>
<path d="M68.0859 22.6252V34.219C68.0859 35.2854 68.9336 36.1331 70 36.1331C71.0664 36.1331 71.9141 35.2854 71.9141 34.219V22.6252C74.9766 21.7776 77.2187 18.9885 77.2187 15.6799C77.2187 11.7151 73.9922 8.46118 70 8.46118C66.0078 8.46118 62.7812 11.6877 62.7812 15.6799C62.7813 18.9885 65.0234 21.8049 68.0859 22.6252ZM70 12.2893C71.8594 12.2893 73.3906 13.8206 73.3906 15.6799C73.3906 17.5393 71.8594 19.0706 70 19.0706C68.1406 19.0706 66.6094 17.5393 66.6094 15.6799C66.6094 13.8206 68.1406 12.2893 70 12.2893Z" fill="#3B4652"/>
<path d="M91.5469 8.46118C87.582 8.46118 84.3281 11.6877 84.3281 15.6799C84.3281 18.9885 86.5703 21.7776 89.6328 22.6252V34.219C89.6328 35.2854 90.4805 36.1331 91.5469 36.1331C92.6133 36.1331 93.4609 35.2854 93.4609 34.219V22.6252C96.5234 21.7776 98.7656 18.9885 98.7656 15.6799C98.7383 11.7151 95.5117 8.46118 91.5469 8.46118ZM91.5469 19.0706C89.6875 19.0706 88.1562 17.5393 88.1562 15.6799C88.1562 13.8206 89.6875 12.2893 91.5469 12.2893C93.4062 12.2893 94.9375 13.8206 94.9375 15.6799C94.9375 17.5393 93.4062 19.0706 91.5469 19.0706Z" fill="#3B4652"/>
<path d="M46.5664 22.6252V34.219C46.5664 35.2854 47.4141 36.1331 48.4805 36.1331C49.5469 36.1331 50.3945 35.2854 50.3945 34.219V22.6252C53.457 21.7776 55.6992 18.9885 55.6992 15.6799C55.6992 11.7151 52.4727 8.46118 48.4805 8.46118C44.4883 8.46118 41.2617 11.6877 41.2617 15.6799C41.2617 18.9885 43.5039 21.8049 46.5664 22.6252ZM48.4805 12.2893C50.3398 12.2893 51.8711 13.8206 51.8711 15.6799C51.8711 17.5393 50.3398 19.0706 48.4805 19.0706C46.6211 19.0706 45.0898 17.5393 45.0898 15.6799C45.0898 13.8206 46.5938 12.2893 48.4805 12.2893Z" fill="#3B4652"/>
<path d="M71.9141 118.492V106.899C71.9141 105.832 71.0664 104.985 70 104.985C68.9336 104.985 68.0859 105.832 68.0859 106.899V118.492C65.0234 119.34 62.7812 122.129 62.7812 125.438C62.7812 129.403 66.0078 132.656 70 132.656C73.9922 132.656 77.2187 129.43 77.2187 125.438C77.2187 122.129 74.9766 119.313 71.9141 118.492ZM70 128.828C68.1406 128.828 66.6094 127.297 66.6094 125.438C66.6094 123.578 68.1406 122.047 70 122.047C71.8594 122.047 73.3906 123.578 73.3906 125.438C73.3906 127.297 71.8594 128.828 70 128.828Z" fill="#3B4652"/>
<path d="M93.4609 118.492V106.899C93.4609 105.832 92.6133 104.985 91.5469 104.985C90.4805 104.985 89.6328 105.832 89.6328 106.899V118.492C86.5703 119.34 84.3281 122.129 84.3281 125.438C84.3281 129.403 87.5547 132.656 91.5469 132.656C95.5391 132.656 98.7656 129.43 98.7656 125.438C98.7383 122.129 96.4961 119.313 93.4609 118.492ZM91.5469 128.828C89.6875 128.828 88.1562 127.297 88.1562 125.438C88.1562 123.578 89.6875 122.047 91.5469 122.047C93.4062 122.047 94.9375 123.578 94.9375 125.438C94.9375 127.297 93.4062 128.828 91.5469 128.828Z" fill="#3B4652"/>
<path d="M50.3945 118.492V106.899C50.3945 105.832 49.5469 104.985 48.4805 104.985C47.4141 104.985 46.5664 105.832 46.5664 106.899V118.492C43.5039 119.34 41.2617 122.129 41.2617 125.438C41.2617 129.403 44.4883 132.656 48.4805 132.656C52.4727 132.656 55.6992 129.43 55.6992 125.438C55.6719 122.129 53.4297 119.313 50.3945 118.492ZM48.4805 128.828C46.6211 128.828 45.0898 127.297 45.0898 125.438C45.0898 123.578 46.6211 122.047 48.4805 122.047C50.3398 122.047 51.8711 123.578 51.8711 125.438C51.8711 127.297 50.3398 128.828 48.4805 128.828Z" fill="#3B4652"/>
<path d="M124.879 63.3401C121.57 63.3401 118.781 65.5823 117.934 68.6448H106.34C105.273 68.6448 104.426 69.4924 104.426 70.5588C104.426 71.6252 105.273 72.4729 106.34 72.4729H117.934C118.781 75.5354 121.57 77.7776 124.879 77.7776C128.844 77.7776 132.098 74.551 132.098 70.5588C132.098 66.5666 128.844 63.3401 124.879 63.3401ZM124.879 73.9495C123.02 73.9495 121.488 72.4182 121.488 70.5588C121.488 68.6995 123.02 67.1682 124.879 67.1682C126.738 67.1682 128.27 68.6995 128.27 70.5588C128.27 72.4182 126.738 73.9495 124.879 73.9495Z" fill="#3B4652"/>
<path d="M124.879 84.887C121.57 84.887 118.781 87.1291 117.934 90.1916H106.34C105.273 90.1916 104.426 91.0393 104.426 92.1057C104.426 93.1721 105.273 94.0198 106.34 94.0198H117.934C118.781 97.0823 121.57 99.3245 124.879 99.3245C128.844 99.3245 132.098 96.0979 132.098 92.1057C132.098 88.1135 128.844 84.887 124.879 84.887ZM124.879 95.469C123.02 95.469 121.488 93.9377 121.488 92.0784C121.488 90.219 123.02 88.6877 124.879 88.6877C126.738 88.6877 128.27 90.219 128.27 92.0784C128.27 93.9377 126.738 95.469 124.879 95.469Z" fill="#3B4652"/>
<path d="M106.34 50.9534H117.934C118.781 54.0159 121.57 56.2581 124.879 56.2581C128.844 56.2581 132.098 53.0315 132.098 49.0393C132.098 45.0471 128.871 41.8206 124.879 41.8206C121.57 41.8206 118.781 44.0627 117.934 47.1252H106.34C105.273 47.1252 104.426 47.9729 104.426 49.0393C104.426 50.1057 105.273 50.9534 106.34 50.9534ZM124.879 45.6487C126.738 45.6487 128.27 47.1799 128.27 49.0393C128.27 50.8987 126.738 52.4299 124.879 52.4299C123.02 52.4299 121.488 50.8987 121.488 49.0393C121.488 47.1799 123.02 45.6487 124.879 45.6487Z" fill="#3B4652"/>
<path d="M33.6602 68.6448H22.0664C21.2187 65.5823 18.4297 63.3401 15.1211 63.3401C11.1562 63.3401 7.90234 66.5666 7.90234 70.5588C7.90234 74.551 11.1289 77.7776 15.1211 77.7776C18.4297 77.7776 21.2187 75.5354 22.0664 72.4729H33.6602C34.7266 72.4729 35.5742 71.6252 35.5742 70.5588C35.5742 69.4924 34.7266 68.6448 33.6602 68.6448ZM15.1211 73.9495C13.2617 73.9495 11.7305 72.4182 11.7305 70.5588C11.7305 68.6995 13.2617 67.1682 15.1211 67.1682C16.9805 67.1682 18.5117 68.6995 18.5117 70.5588C18.5117 72.4182 16.9805 73.9495 15.1211 73.9495Z" fill="#3B4652"/>
<path d="M33.6602 90.1916H22.0664C21.2187 87.1291 18.4297 84.887 15.1211 84.887C11.1562 84.887 7.90234 88.1135 7.90234 92.1057C7.90234 96.0979 11.1289 99.3245 15.1211 99.3245C18.4297 99.3245 21.2187 97.0823 22.0664 94.0198H33.6602C34.7266 94.0198 35.5742 93.1721 35.5742 92.1057C35.5742 91.0393 34.7266 90.1916 33.6602 90.1916ZM15.1211 95.469C13.2617 95.469 11.7305 93.9377 11.7305 92.0784C11.7305 90.219 13.2617 88.6877 15.1211 88.6877C16.9805 88.6877 18.5117 90.219 18.5117 92.0784C18.5117 93.9377 16.9805 95.469 15.1211 95.469Z" fill="#3B4652"/>
<path d="M33.6602 47.1252H22.0664C21.2187 44.0627 18.4297 41.8206 15.1211 41.8206C11.1562 41.8206 7.90234 45.0471 7.90234 49.0393C7.90234 53.0315 11.1289 56.2581 15.1211 56.2581C18.4297 56.2581 21.2187 54.0159 22.0664 50.9534H33.6602C34.7266 50.9534 35.5742 50.1057 35.5742 49.0393C35.5742 47.9729 34.7266 47.1252 33.6602 47.1252ZM15.1211 52.4026C13.2617 52.4026 11.7305 50.8713 11.7305 49.012C11.7305 47.1526 13.2617 45.6213 15.1211 45.6213C16.9805 45.6213 18.5117 47.1526 18.5117 49.012C18.5117 50.8713 16.9805 52.4026 15.1211 52.4026Z" fill="#3B4652"/>
<defs>
<linearGradient id="paint0_linear_588_1102" x1="22.3945" y1="98.1042" x2="101.692" y2="91.337" gradientUnits="userSpaceOnUse">
<stop stop-color="#61285B"/>
<stop offset="0.432292" stop-color="#45389E"/>
<stop offset="1" stop-color="#1E50FF"/>
</linearGradient>
</defs>
</svg>
