<svg width="46" height="38" viewBox="0 0 46 38" fill="none" xmlns="http://www.w3.org/2000/svg">
<path d="M5.35 28.5324V28.0586L4.92217 27.8551C2.45328 26.6807 0.75 24.1706 0.75 21.2586C0.75 17.224 4.01785 13.9586 8.05 13.9586H10.35C11.5393 13.9586 12.7318 14.2652 13.7635 14.8044C11.8952 16.7917 10.75 19.4687 10.75 22.4086C10.75 24.9414 11.5408 27.2968 13.05 29.1822V30.4586C13.05 31.3166 12.358 32.0086 11.5 32.0086H6.9C6.04372 32.0086 5.35 31.3162 5.35 30.4586V28.5324ZM4.03955 24.7973L5.35 26.2709V24.299V18.2183H4.6L4.03955 17.7199C3.20469 18.6587 2.7 19.9059 2.7 21.2586C2.7 22.6114 3.20469 23.8585 4.03955 24.7973ZM35.25 22.4086C35.25 19.4676 34.1038 16.7896 32.2343 14.802C33.2518 14.2634 34.4133 13.9586 35.65 13.9586H37.95C41.9848 13.9586 45.25 17.2238 45.25 21.2586C45.25 24.1703 43.5442 26.6807 41.0775 27.8552L40.65 28.0588V28.5324V30.4586C40.65 31.3166 39.958 32.0086 39.1 32.0086H34.5C33.642 32.0086 32.95 31.3166 32.95 30.4586V29.1737C34.3912 27.3028 35.25 24.955 35.25 22.4086ZM41.9821 17.7454L40.65 16.1059V18.2183V24.299H41.4L41.9821 24.7719C42.7168 23.8677 43.3 22.635 43.3 21.2586C43.3 19.8823 42.7168 18.6496 41.9821 17.7454ZM27.2775 29.0052L26.85 29.2088V29.6824V32.7586C26.85 33.6166 26.158 34.3086 25.3 34.3086H20.7C19.842 34.3086 19.15 33.6166 19.15 32.7586V29.6824V29.2088L18.7225 29.0052C16.2558 27.8307 14.55 25.3203 14.55 22.4086C14.55 18.3738 17.8152 15.1086 21.85 15.1086H24.15C28.1848 15.1086 31.45 18.3738 31.45 22.4086C31.45 25.3203 29.7442 27.8307 27.2775 29.0052ZM19.15 19.3683V17.4022L17.8405 18.8688C17.001 19.8091 16.5 21.0571 16.5 22.4086C16.5 23.7602 17.001 25.0082 17.8405 25.9485L18.4 25.449H19.15V19.3683ZM28.1821 18.8954L26.85 17.2559V19.3683V25.449V27.576L28.1841 25.9194C28.9156 25.011 29.5 23.7864 29.5 22.4086C29.5 21.0323 28.9168 19.7996 28.1821 18.8954ZM12.475 6.88364C12.475 8.69037 11.0067 10.1586 9.2 10.1586C7.39138 10.1586 5.925 8.69063 5.925 6.88364C5.925 5.07476 7.39112 3.60864 9.2 3.60864C11.007 3.60864 12.475 5.07502 12.475 6.88364ZM40.075 6.88364C40.075 8.69037 38.6067 10.1586 36.8 10.1586C34.9933 10.1586 33.525 8.69037 33.525 6.88364C33.525 5.07502 34.993 3.60864 36.8 3.60864C38.607 3.60864 40.075 5.07502 40.075 6.88364ZM19.15 7.45864C19.15 5.33246 20.8766 3.60864 23 3.60864C25.1234 3.60864 26.85 5.33246 26.85 7.45864C26.85 9.58162 25.123 11.3086 23 11.3086C20.877 11.3086 19.15 9.58162 19.15 7.45864Z" stroke="url(#paint0_linear_582_387)" stroke-width="1.5"/>
<defs>
<linearGradient id="paint0_linear_582_387" x1="-16.7481" y1="35.0486" x2="48.9287" y2="27.0417" gradientUnits="userSpaceOnUse">
<stop stop-color="#61285B"/>
<stop offset="0.432292" stop-color="#45389E"/>
<stop offset="1" stop-color="#1E50FF"/>
</linearGradient>
</defs>
</svg>
