<svg width="36" height="31" viewBox="0 0 36 31" fill="none" xmlns="http://www.w3.org/2000/svg">
<path d="M14.25 15.5586C13.9185 15.5586 13.6005 15.6903 13.3661 15.9247C13.1317 16.1591 13 16.4771 13 16.8086C13 17.1401 13.1317 17.4581 13.3661 17.6925C13.6005 17.9269 13.9185 18.0586 14.25 18.0586H21.75C22.0815 18.0586 22.3995 17.9269 22.6339 17.6925C22.8683 17.4581 23 17.1401 23 16.8086C23 16.4771 22.8683 16.1591 22.6339 15.9247C22.3995 15.6903 22.0815 15.5586 21.75 15.5586H14.25ZM0.500001 4.30859C0.500001 3.31403 0.895089 2.3602 1.59835 1.65694C2.30161 0.953682 3.25544 0.558594 4.25 0.558594H31.75C32.7446 0.558594 33.6984 0.953682 34.4017 1.65694C35.1049 2.3602 35.5 3.31403 35.5 4.30859V6.80859C35.5004 7.58441 35.2602 8.34125 34.8124 8.97482C34.3647 9.60839 33.7314 10.0875 33 10.3461V24.3086C33 25.9662 32.3415 27.5559 31.1694 28.728C29.9973 29.9001 28.4076 30.5586 26.75 30.5586H9.25C7.5924 30.5586 6.00269 29.9001 4.83058 28.728C3.65848 27.5559 3 25.9662 3 24.3086V10.3461C2.26856 10.0875 1.63532 9.60839 1.18757 8.97482C0.73982 8.34125 0.499594 7.58441 0.500001 6.80859V4.30859ZM4.25 3.05859C3.91848 3.05859 3.60054 3.19029 3.36612 3.42471C3.1317 3.65913 3 3.97707 3 4.30859V6.80859C3 7.14011 3.1317 7.45806 3.36612 7.69248C3.60054 7.9269 3.91848 8.05859 4.25 8.05859H31.75C32.0815 8.05859 32.3995 7.9269 32.6339 7.69248C32.8683 7.45806 33 7.14011 33 6.80859V4.30859C33 3.97707 32.8683 3.65913 32.6339 3.42471C32.3995 3.19029 32.0815 3.05859 31.75 3.05859H4.25ZM5.5 10.5586V24.3086C5.5 25.3032 5.89509 26.257 6.59835 26.9602C7.30161 27.6635 8.25544 28.0586 9.25 28.0586H26.75C27.7446 28.0586 28.6984 27.6635 29.4017 26.9602C30.1049 26.257 30.5 25.3032 30.5 24.3086V10.5586H5.5Z" fill="url(#paint0_linear_582_405)"/>
<defs>
<linearGradient id="paint0_linear_582_405" x1="-12.2431" y1="30.5493" x2="37.9733" y2="25.5495" gradientUnits="userSpaceOnUse">
<stop stop-color="#61285B"/>
<stop offset="0.432292" stop-color="#45389E"/>
<stop offset="1" stop-color="#1E50FF"/>
</linearGradient>
</defs>
</svg>
