<svg width="15" height="25" viewBox="0 0 15 25" fill="none" xmlns="http://www.w3.org/2000/svg">
<path d="M14.6667 0.783925C14.6667 0.607114 14.5964 0.437545 14.4714 0.312521C14.3464 0.187497 14.1768 0.117259 14 0.117259H10.6667C8.98816 0.0336466 7.3448 0.617781 6.09563 1.74203C4.84646 2.86628 4.09305 4.43925 4 6.11726V9.71726H0.666667C0.489856 9.71726 0.320287 9.7875 0.195262 9.91252C0.070238 10.0375 0 10.2071 0 10.3839V13.8506C0 14.0274 0.070238 14.197 0.195262 14.322C0.320287 14.447 0.489856 14.5173 0.666667 14.5173H4V23.4506C4 23.6274 4.07024 23.797 4.19526 23.922C4.32029 24.047 4.48986 24.1173 4.66667 24.1173H8.66667C8.84348 24.1173 9.01305 24.047 9.13807 23.922C9.2631 23.797 9.33333 23.6274 9.33333 23.4506V14.5173H12.8267C12.9749 14.5194 13.1197 14.472 13.238 14.3827C13.3563 14.2933 13.4415 14.1671 13.48 14.0239L14.44 10.5573C14.4665 10.4588 14.4701 10.3555 14.4504 10.2554C14.4308 10.1553 14.3884 10.061 14.3265 9.97989C14.2647 9.89874 14.1851 9.83287 14.0938 9.78734C14.0025 9.7418 13.902 9.71783 13.8 9.71726H9.33333V6.11726C9.3665 5.78723 9.52149 5.48141 9.76803 5.25952C10.0146 5.03763 10.335 4.9156 10.6667 4.91726H14C14.1768 4.91726 14.3464 4.84702 14.4714 4.722C14.5964 4.59697 14.6667 4.4274 14.6667 4.25059V0.783925Z" fill="url(#paint0_linear_582_464)"/>
<defs>
<linearGradient id="paint0_linear_582_464" x1="-5.33997" y1="24.1098" x2="15.8541" y2="23.0048" gradientUnits="userSpaceOnUse">
<stop stop-color="#61285B"/>
<stop offset="0.432292" stop-color="#45389E"/>
<stop offset="1" stop-color="#1E50FF"/>
</linearGradient>
</defs>
</svg>
