<svg width="97" height="32" viewBox="0 0 97 32" fill="none" xmlns="http://www.w3.org/2000/svg">
<g clip-path="url(#clip0_871_19)">
<path d="M6.19548 -0.000488281C3.54452 -0.000488281 1.39548 2.14855 1.39548 4.79951C1.39548 7.45047 3.54452 9.59951 6.19548 9.59951H17.3955C20.0465 9.59951 22.1955 7.45047 22.1955 4.79951C22.1955 2.14855 20.0465 -0.000488281 17.3955 -0.000488281H6.19548Z" fill="#C2C2C2"/>
<path d="M17.3955 11.1995C14.7444 11.1995 12.5955 13.3484 12.5955 15.9995C12.5955 18.6505 14.7444 20.7995 17.3955 20.7995C20.0465 20.7995 22.1955 18.6505 22.1955 15.9995C22.1955 13.3484 20.0465 11.1995 17.3955 11.1995Z" fill="#C2C2C2"/>
<path d="M1.39548 15.9995C1.39548 13.3484 3.54452 11.1995 6.19548 11.1995H10.9955V20.7995H6.19548C3.54452 20.7995 1.39548 18.6505 1.39548 15.9995Z" fill="#C2C2C2"/>
<path d="M6.19548 22.3994C3.54452 22.3994 1.39548 24.5484 1.39548 27.1994C1.39548 29.8505 3.54452 31.9994 6.19548 31.9994C8.84652 31.9994 10.9955 29.8505 10.9955 27.1994V22.3994H6.19548Z" fill="#C2C2C2"/>
<path d="M30.1955 3.99951H38.6878V6.3872H32.9278V11.5072H37.4078V13.9195H32.9278V22.0918H30.1955V3.99951Z" fill="#C2C2C2"/>
<path d="M41.2543 10.7934H44.0112V22.0918H41.2543V10.7934ZM42.6082 8.67643C42.0995 8.67643 41.6728 8.50413 41.3282 8.15951C40.9836 7.8149 40.8112 7.38823 40.8112 6.87951C40.8112 6.42002 40.9836 6.02618 41.3282 5.69797C41.6728 5.36977 42.0995 5.20566 42.6082 5.20566C43.1005 5.20566 43.5189 5.36977 43.8636 5.69797C44.2082 6.02618 44.3805 6.42002 44.3805 6.87951C44.3805 7.38823 44.2082 7.8149 43.8636 8.15951C43.5354 8.50413 43.1169 8.67643 42.6082 8.67643Z" fill="#C2C2C2"/>
<path d="M53.1812 27.9995C52.3443 27.9995 51.5156 27.8846 50.6951 27.6549C49.891 27.4252 49.3166 27.2118 48.972 27.0149L49.5628 24.5534C50.6459 25.259 51.8274 25.6118 53.1074 25.6118C54.092 25.6118 54.9207 25.3739 55.5936 24.898C56.2664 24.4221 56.611 23.4949 56.6274 22.1164V20.098C56.2828 20.738 55.7248 21.2713 54.9536 21.698C54.1823 22.1246 53.3289 22.338 52.3936 22.338C51.4089 22.338 50.5064 22.1 49.6859 21.6241C48.8654 21.1318 48.2171 20.4344 47.7412 19.5318C47.2653 18.6293 47.0274 17.579 47.0274 16.3811C47.0274 15.2323 47.2489 14.2149 47.692 13.3287C48.1515 12.4262 48.7997 11.7287 49.6366 11.2364C50.4736 10.7441 51.45 10.498 52.5659 10.498C53.2223 10.498 53.8377 10.6128 54.412 10.8426C54.9864 11.0723 55.4705 11.3595 55.8643 11.7041C56.2746 12.0323 56.5454 12.3605 56.6766 12.6887L56.7259 10.7934H59.2366V22.018C59.2366 23.938 58.7443 25.4149 57.7597 26.4487C56.7751 27.4826 55.2489 27.9995 53.1812 27.9995ZM53.132 20.098C54.0674 20.098 54.8551 19.778 55.4951 19.138C56.1351 18.4816 56.4551 17.6282 56.4551 16.578V16.4057C56.4551 15.7 56.3074 15.0682 56.012 14.5103C55.7166 13.9523 55.3146 13.5175 54.8059 13.2057C54.2971 12.8939 53.7392 12.738 53.132 12.738C52.0818 12.738 51.2695 13.0826 50.6951 13.7718C50.1207 14.4446 49.8336 15.3226 49.8336 16.4057C49.8336 17.5052 50.1125 18.3995 50.6705 19.0887C51.2448 19.7616 52.0654 20.098 53.132 20.098Z" fill="#C2C2C2"/>
<path d="M62.6439 10.7934H65.3024V12.8364C65.6634 12.0652 66.1886 11.4826 66.8778 11.0887C67.5834 10.6949 68.3875 10.498 69.2901 10.498C71.3086 10.5144 72.5475 11.2118 73.007 12.5903C73.368 11.9503 73.9096 11.4416 74.6316 11.0641C75.3537 10.6867 76.1168 10.498 76.9209 10.498C78.1024 10.498 78.9968 10.7277 79.6039 11.1872C80.2111 11.6303 80.6132 12.2703 80.8101 13.1072C81.0234 13.9277 81.1301 15.0354 81.1301 16.4303V22.0918H78.447V16.4057C78.447 15.0764 78.3075 14.1246 78.0286 13.5503C77.766 12.9759 77.2491 12.6887 76.4778 12.6887C75.4439 12.6887 74.6562 13.0416 74.1147 13.7472C73.5896 14.4364 73.327 15.3472 73.327 16.4795V22.0918H70.6686V16.0118C70.6686 15.1421 70.6357 14.4939 70.5701 14.0672C70.5045 13.6405 70.3239 13.3041 70.0286 13.058C69.7332 12.8118 69.2573 12.6887 68.6009 12.6887C68.0265 12.6887 67.485 12.861 66.9762 13.2057C66.4839 13.5503 66.0819 14.018 65.7701 14.6087C65.4747 15.1831 65.327 15.8067 65.327 16.4795V22.0918H62.6439V10.7934Z" fill="#C2C2C2"/>
<path d="M89.5159 22.338C88.4984 22.338 87.5548 22.1 86.6851 21.6241C85.8318 21.1318 85.1425 20.4426 84.6174 19.5564C84.1087 18.6539 83.8543 17.6036 83.8543 16.4057C83.8543 15.2241 84.0759 14.1903 84.5189 13.3041C84.9784 12.418 85.6266 11.7287 86.4636 11.2364C87.3005 10.7441 88.2851 10.498 89.4174 10.498C90.0738 10.498 90.6892 10.6128 91.2636 10.8426C91.8379 11.0723 92.322 11.3595 92.7159 11.7041C93.1097 12.0323 93.3723 12.3605 93.5036 12.6887L93.5528 10.7934H96.0882V22.0918H93.5774L93.5282 20.098C93.2492 20.6887 92.7405 21.2139 92.002 21.6734C91.2636 22.1164 90.4348 22.338 89.5159 22.338ZM89.9589 20.1226C90.8943 20.1226 91.682 19.8026 92.322 19.1626C92.962 18.5062 93.282 17.6528 93.282 16.6026V16.4303C93.282 15.7246 93.1343 15.0928 92.8389 14.5349C92.5436 13.9769 92.1415 13.5421 91.6328 13.2303C91.1241 12.9185 90.5661 12.7626 89.9589 12.7626C88.9087 12.7626 88.0964 13.1072 87.522 13.7964C86.9477 14.4693 86.6605 15.3472 86.6605 16.4303C86.6605 17.5298 86.9394 18.4241 87.4974 19.1134C88.0718 19.7862 88.8923 20.1226 89.9589 20.1226Z" fill="#C2C2C2"/>
</g>
<defs>
<clipPath id="clip0_871_19">
<rect width="96" height="32" fill="white" transform="translate(0.603088 -0.000488281)"/>
</clipPath>
</defs>
</svg>
