<svg width="99" height="32" viewBox="0 0 99 32" fill="none" xmlns="http://www.w3.org/2000/svg">
<g clip-path="url(#clip0_835_77)">
<path d="M95.076 19.5513L97.7778 21.3524C96.9009 22.644 94.8035 24.8599 91.1775 24.8599C86.6747 24.8599 83.3212 21.3761 83.3212 16.9443C83.3212 12.2282 86.7102 9.02881 90.7983 9.02881C94.9102 9.02881 96.9246 12.2993 97.5763 14.0649L97.9318 14.9655L87.3382 19.3498C88.144 20.9377 89.4001 21.7434 91.1775 21.7434C92.955 21.7434 94.1873 20.8666 95.076 19.5513ZM86.7695 16.6955L93.8437 13.7568C93.4526 12.7733 92.2914 12.0742 90.905 12.0742C89.1394 12.0742 86.6865 13.6383 86.7695 16.6955Z" fill="#C2C2C2"/>
<path d="M78.2141 0.959229H81.6267V24.1371H78.2141V0.959229Z" fill="#C2C2C2"/>
<path d="M72.8343 9.64512H76.1285V23.7225C76.1285 29.5643 72.6803 31.9698 68.604 31.9698C64.7647 31.9698 62.454 29.3866 61.589 27.2892L64.6107 26.0331C65.1558 27.3247 66.4711 28.8533 68.604 28.8533C71.2228 28.8533 72.8343 27.2299 72.8343 24.1964V23.0589H72.7158C71.9337 24.0068 70.4407 24.86 68.5448 24.86C64.587 24.86 60.961 21.4118 60.961 16.9682C60.961 12.5009 64.587 9.01709 68.5448 9.01709C70.4288 9.01709 71.9337 9.85841 72.7158 10.7827H72.8343V9.64512ZM73.0713 16.9682C73.0713 14.1717 71.2109 12.1335 68.841 12.1335C66.4474 12.1335 64.4329 14.1717 64.4329 16.9682C64.4329 19.7291 66.4474 21.7317 68.841 21.7317C71.2109 21.7436 73.0713 19.7291 73.0713 16.9682Z" fill="#C2C2C2"/>
<path d="M42.2268 16.9088C42.2268 21.4709 38.6719 24.8244 34.3112 24.8244C29.9506 24.8244 26.3957 21.4591 26.3957 16.9088C26.3957 12.323 29.9506 8.98145 34.3112 8.98145C38.6719 8.98145 42.2268 12.323 42.2268 16.9088ZM38.7667 16.9088C38.7667 14.0649 36.7049 12.1097 34.3112 12.1097C31.9176 12.1097 29.8558 14.0649 29.8558 16.9088C29.8558 19.729 31.9176 21.7079 34.3112 21.7079C36.7049 21.7079 38.7667 19.729 38.7667 16.9088Z" fill="#C2C2C2"/>
<path d="M59.5153 16.9443C59.5153 21.5064 55.9605 24.8599 51.5998 24.8599C47.2391 24.8599 43.6843 21.5064 43.6843 16.9443C43.6843 12.3585 47.2391 9.02881 51.5998 9.02881C55.9605 9.02881 59.5153 12.3467 59.5153 16.9443ZM56.0434 16.9443C56.0434 14.1004 53.9816 12.1453 51.588 12.1453C49.1943 12.1453 47.1325 14.1004 47.1325 16.9443C47.1325 19.7646 49.1943 21.7434 51.588 21.7434C53.9934 21.7434 56.0434 19.7527 56.0434 16.9443Z" fill="#C2C2C2"/>
<path d="M13.3848 21.388C8.41982 21.388 4.53315 17.3828 4.53315 12.4179C4.53315 7.45286 8.41982 3.4477 13.3848 3.4477C16.0628 3.4477 18.018 4.50231 19.4637 5.85317L21.8454 3.47139C19.831 1.53991 17.1411 0.0705566 13.3848 0.0705566C6.58313 0.0705566 0.859772 5.61617 0.859772 12.4179C0.859772 19.2195 6.58313 24.7651 13.3848 24.7651C17.0582 24.7651 19.831 23.5565 21.9995 21.3051C24.2272 19.0773 24.9145 15.949 24.9145 13.4132C24.9145 12.6193 24.8197 11.8017 24.713 11.1973H13.3848V14.4915H21.4544C21.2174 16.5534 20.5657 17.9635 19.6059 18.9233C18.4446 20.0964 16.6079 21.388 13.3848 21.388Z" fill="#C2C2C2"/>
</g>
<defs>
<clipPath id="clip0_835_77">
<rect width="98.087" height="32" fill="white" transform="translate(0.516113 -0.000488281)"/>
</clipPath>
</defs>
</svg>
