<svg width="24" height="25" viewBox="0 0 24 25" fill="none" xmlns="http://www.w3.org/2000/svg">
<path d="M11.9414 9.92496V14.5263H18.3308C17.7361 17.4503 15.2468 19.1303 11.9414 19.1303C10.0913 19.1048 8.32549 18.352 7.02614 17.0346C5.72678 15.7173 4.99831 13.9413 4.99831 12.091C4.99831 10.2406 5.72678 8.46466 7.02614 7.1473C8.32549 5.82994 10.0913 5.07709 11.9414 5.05163C13.5417 5.04971 15.0927 5.60506 16.3281 6.62229L19.7948 3.15563C18.3484 1.88332 16.6149 0.980934 14.7431 0.52591C12.8713 0.0708851 10.917 0.0768075 9.04801 0.543169C7.17898 1.00953 5.45102 1.9224 4.01239 3.20345C2.57377 4.48451 1.46744 6.09548 0.788345 7.89814C0.10925 9.70079 -0.122331 11.6413 0.113473 13.5531C0.349276 15.465 1.04542 17.2911 2.14218 18.8747C3.23893 20.4583 4.70354 21.7522 6.41032 22.6453C8.11711 23.5384 10.0151 24.004 11.9414 24.0023C17.8974 24.0023 23.3134 19.6703 23.3134 12.0903C23.3042 11.3605 23.2148 10.6339 23.0468 9.92363L11.9414 9.92496Z" fill="url(#paint0_linear_582_457)"/>
<defs>
<linearGradient id="paint0_linear_582_457" x1="-8.45551" y1="23.9949" x2="25.057" y2="21.1978" gradientUnits="userSpaceOnUse">
<stop stop-color="#61285B"/>
<stop offset="0.432292" stop-color="#45389E"/>
<stop offset="1" stop-color="#1E50FF"/>
</linearGradient>
</defs>
</svg>
