<svg width="140" height="141" viewBox="0 0 140 141" fill="none" xmlns="http://www.w3.org/2000/svg">
<g clip-path="url(#clip0_587_980)">
<path d="M92.893 44.5974L84.0293 53.364L70 35.9436C78.7779 35.9436 86.791 39.2128 92.893 44.5974Z" fill="#A0DDDF"/>
<path d="M84.0295 87.7537L92.8933 96.5203C86.7913 101.905 78.7779 105.174 70 105.174L84.0295 87.7537Z" fill="#20AAB0"/>
<path d="M92.893 44.5973C100.081 50.9399 104.616 60.2191 104.616 70.5588L84.231 73.6358L84.0298 50.2873C87.2774 48.8446 90.2631 46.9182 92.893 44.5973Z" fill="#71CCCE"/>
<path d="M84.2307 70.5588H104.615C104.615 80.8986 100.081 90.1777 92.8927 96.5204C90.2628 94.1994 87.2774 92.2731 84.0289 90.8304L84.2307 70.5588Z" fill="#41BBBE"/>
<path d="M47.1069 44.5974L55.9707 53.364L69.9999 35.9436C61.2221 35.9436 53.209 39.2128 47.1069 44.5974Z" fill="#20AAB0"/>
<path d="M55.9704 87.7537L47.1067 96.5203C53.2087 101.905 61.2221 105.174 70 105.174L55.9704 87.7537Z" fill="#06484A"/>
<path d="M47.1069 44.5973C39.9194 50.9399 35.3844 60.2191 35.3844 70.5588L55.7689 73.6358L55.9701 50.2873C52.7225 48.8446 49.7369 46.9182 47.1069 44.5973Z" fill="#14858A"/>
<path d="M55.7693 70.5588H35.3848C35.3848 80.8986 39.9195 90.1777 47.1073 96.5204C49.7372 94.1994 52.7226 92.2731 55.9711 90.8304L55.7693 70.5588Z" fill="#086063"/>
<path d="M55.9705 50.2872C53.9088 55.9854 52.6923 62.9876 52.6923 70.5588L73.0768 76.7125V53.251L55.9705 50.2872Z" fill="#20AAB0"/>
<path d="M52.6923 70.5588C52.6923 78.1303 53.9085 85.1328 55.9705 90.8304L73.077 87.8663V70.5588H52.6923Z" fill="#14858A"/>
<path d="M55.9705 90.8304C59.1147 99.5197 64.2272 105.174 70 105.174L73.077 96.8151L70 87.8666C65.0051 87.8666 60.2588 88.9261 55.9705 90.8304Z" fill="#086063"/>
<path d="M55.9705 50.2873C60.2588 52.1915 65.0051 53.2514 70 53.2514L73.077 44.5976L70 35.9436C64.2272 35.9436 59.115 41.598 55.9705 50.2873Z" fill="#41BBBE"/>
<path d="M84.0295 50.2874L70 53.2511V70.5589L78.6538 73.6359L87.3078 70.5589C87.3078 62.9874 86.0915 55.985 84.0295 50.2874Z" fill="#41BBBE"/>
<path d="M70 70.5588V87.8666L84.0295 90.8307C86.0913 85.1325 87.3078 78.1303 87.3078 70.5591H70V70.5588Z" fill="#20AAB0"/>
<path d="M84.0295 90.8304C79.7412 88.9262 74.9949 87.8663 70 87.8663V105.174C75.7728 105.174 80.8853 99.5197 84.0295 90.8304Z" fill="#14858A"/>
<path d="M70 53.251C74.9949 53.251 79.7412 52.1914 84.0295 50.287C80.885 41.5977 75.7728 35.9432 70 35.9432V53.251Z" fill="#71CCCE"/>
<path d="M113.846 68.251C112.572 68.251 111.538 69.284 111.538 70.5588C111.538 71.8336 112.572 72.8666 113.846 72.8666H132.308V68.251H113.846Z" fill="url(#paint0_linear_587_980)"/>
<path d="M26.1538 68.251H7.69238V72.8663H26.1538C27.4283 72.8663 28.4616 71.8333 28.4616 70.5585C28.4616 69.284 27.4283 68.251 26.1538 68.251Z" fill="url(#paint1_linear_587_980)"/>
<path d="M132.308 78.2511C136.556 78.2511 140 74.8072 140 70.5588C140 66.3104 136.556 62.8665 132.308 62.8665C128.059 62.8665 124.615 66.3104 124.615 70.5588C124.615 74.8072 128.059 78.2511 132.308 78.2511Z" fill="url(#paint2_linear_587_980)"/>
<path d="M7.69234 78.2511C11.9407 78.2511 15.3847 74.8072 15.3847 70.5588C15.3847 66.3104 11.9407 62.8665 7.69234 62.8665C3.44398 62.8665 0 66.3104 0 70.5588C0 74.8072 3.44398 78.2511 7.69234 78.2511Z" fill="url(#paint3_linear_587_980)"/>
<path d="M99.3721 37.9232C98.4709 38.8244 98.4709 40.2854 99.3721 41.1869C100.273 42.0882 101.735 42.0882 102.636 41.1869L115.69 28.1328L112.426 24.869L99.3721 37.9232Z" fill="url(#paint4_linear_587_980)"/>
<path d="M37.3644 99.9308L24.3102 112.985L27.5739 116.249L40.6281 103.195C41.5294 102.293 41.5294 100.832 40.6281 99.9308C39.7263 99.0296 38.2656 99.0299 37.3644 99.9308Z" fill="url(#paint5_linear_587_980)"/>
<path d="M114.058 34.1928C118.307 34.1928 121.751 30.7488 121.751 26.5005C121.751 22.2521 118.307 18.8081 114.058 18.8081C109.81 18.8081 106.366 22.2521 106.366 26.5005C106.366 30.7488 109.81 34.1928 114.058 34.1928Z" fill="#E4769A"/>
<path d="M25.9416 122.31C30.19 122.31 33.634 118.866 33.634 114.617C33.634 110.369 30.19 106.925 25.9416 106.925C21.6932 106.925 18.2493 110.369 18.2493 114.617C18.2493 118.866 21.6932 122.31 25.9416 122.31Z" fill="#E4769A"/>
<path d="M102.635 99.9309C101.734 99.0297 100.273 99.0297 99.3717 99.9309C98.4705 100.832 98.4705 102.293 99.3717 103.195L112.426 116.249L115.69 112.985L102.635 99.9309Z" fill="url(#paint6_linear_587_980)"/>
<path d="M40.6278 37.9232L27.5734 24.869L24.3102 28.1322L37.3644 41.1864C38.2656 42.0877 39.7266 42.0877 40.6281 41.1864C41.5294 40.2852 41.5288 38.8244 40.6278 37.9232Z" fill="url(#paint7_linear_587_980)"/>
<path d="M114.058 122.31C118.307 122.31 121.751 118.866 121.751 114.617C121.751 110.369 118.307 106.925 114.058 106.925C109.81 106.925 106.366 110.369 106.366 114.617C106.366 118.866 109.81 122.31 114.058 122.31Z" fill="#E4769A"/>
<path d="M25.9416 34.1928C30.19 34.1928 33.634 30.7488 33.634 26.5005C33.634 22.2521 30.19 18.8081 25.9416 18.8081C21.6932 18.8081 18.2493 22.2521 18.2493 26.5005C18.2493 30.7488 21.6932 34.1928 25.9416 34.1928Z" fill="#E4769A"/>
<path d="M67.6921 26.7126C67.6921 27.9871 68.7252 29.0204 70 29.0204C71.2747 29.0204 72.3078 27.9871 72.3078 26.7126V8.25122H67.6921V26.7126Z" fill="url(#paint8_linear_587_980)"/>
<path d="M67.6921 114.405V132.867H72.3075V114.405C72.3075 113.131 71.2744 112.097 69.9997 112.097C68.7252 112.097 67.6921 113.131 67.6921 114.405Z" fill="url(#paint9_linear_587_980)"/>
<path d="M70 15.9435C74.2483 15.9435 77.6923 12.4995 77.6923 8.25118C77.6923 4.00282 74.2483 0.558838 70 0.558838C65.7516 0.558838 62.3076 4.00282 62.3076 8.25118C62.3076 12.4995 65.7516 15.9435 70 15.9435Z" fill="url(#paint10_linear_587_980)"/>
<path d="M70 140.559C74.2483 140.559 77.6923 137.115 77.6923 132.867C77.6923 128.618 74.2483 125.174 70 125.174C65.7516 125.174 62.3076 128.618 62.3076 132.867C62.3076 137.115 65.7516 140.559 70 140.559Z" fill="url(#paint11_linear_587_980)"/>
</g>
<defs>
<linearGradient id="paint0_linear_587_980" x1="103.977" y1="72.8652" x2="130.203" y2="62.7936" gradientUnits="userSpaceOnUse">
<stop stop-color="#61285B"/>
<stop offset="0.432292" stop-color="#45389E"/>
<stop offset="1" stop-color="#1E50FF"/>
</linearGradient>
<linearGradient id="paint1_linear_587_980" x1="0.130548" y1="72.8649" x2="26.3567" y2="62.7931" gradientUnits="userSpaceOnUse">
<stop stop-color="#61285B"/>
<stop offset="0.432292" stop-color="#45389E"/>
<stop offset="1" stop-color="#1E50FF"/>
</linearGradient>
<linearGradient id="paint2_linear_587_980" x1="119.014" y1="78.2464" x2="141.145" y2="76.3577" gradientUnits="userSpaceOnUse">
<stop stop-color="#61285B"/>
<stop offset="0.432292" stop-color="#45389E"/>
<stop offset="1" stop-color="#1E50FF"/>
</linearGradient>
<linearGradient id="paint3_linear_587_980" x1="-5.60139" y1="78.2464" x2="16.5295" y2="76.3577" gradientUnits="userSpaceOnUse">
<stop stop-color="#61285B"/>
<stop offset="0.432292" stop-color="#45389E"/>
<stop offset="1" stop-color="#1E50FF"/>
</linearGradient>
<linearGradient id="paint4_linear_587_980" x1="92.5089" y1="41.8576" x2="116.955" y2="39.7714" gradientUnits="userSpaceOnUse">
<stop stop-color="#61285B"/>
<stop offset="0.432292" stop-color="#45389E"/>
<stop offset="1" stop-color="#1E50FF"/>
</linearGradient>
<linearGradient id="paint5_linear_587_980" x1="18.1229" y1="116.243" x2="42.5686" y2="114.157" gradientUnits="userSpaceOnUse">
<stop stop-color="#61285B"/>
<stop offset="0.432292" stop-color="#45389E"/>
<stop offset="1" stop-color="#1E50FF"/>
</linearGradient>
<linearGradient id="paint6_linear_587_980" x1="92.5085" y1="116.244" x2="116.954" y2="114.157" gradientUnits="userSpaceOnUse">
<stop stop-color="#61285B"/>
<stop offset="0.432292" stop-color="#45389E"/>
<stop offset="1" stop-color="#1E50FF"/>
</linearGradient>
<linearGradient id="paint7_linear_587_980" x1="18.123" y1="41.8571" x2="42.5683" y2="39.7708" gradientUnits="userSpaceOnUse">
<stop stop-color="#61285B"/>
<stop offset="0.432292" stop-color="#45389E"/>
<stop offset="1" stop-color="#1E50FF"/>
</linearGradient>
<linearGradient id="paint8_linear_587_980" x1="66.0116" y1="29.014" x2="72.6972" y2="28.8872" gradientUnits="userSpaceOnUse">
<stop stop-color="#61285B"/>
<stop offset="0.432292" stop-color="#45389E"/>
<stop offset="1" stop-color="#1E50FF"/>
</linearGradient>
<linearGradient id="paint9_linear_587_980" x1="66.0117" y1="132.86" x2="72.6969" y2="132.734" gradientUnits="userSpaceOnUse">
<stop stop-color="#61285B"/>
<stop offset="0.432292" stop-color="#45389E"/>
<stop offset="1" stop-color="#1E50FF"/>
</linearGradient>
<linearGradient id="paint10_linear_587_980" x1="56.7062" y1="15.9387" x2="78.8371" y2="14.0501" gradientUnits="userSpaceOnUse">
<stop stop-color="#61285B"/>
<stop offset="0.432292" stop-color="#45389E"/>
<stop offset="1" stop-color="#1E50FF"/>
</linearGradient>
<linearGradient id="paint11_linear_587_980" x1="56.7062" y1="140.554" x2="78.8371" y2="138.665" gradientUnits="userSpaceOnUse">
<stop stop-color="#61285B"/>
<stop offset="0.432292" stop-color="#45389E"/>
<stop offset="1" stop-color="#1E50FF"/>
</linearGradient>
<clipPath id="clip0_587_980">
<rect width="140" height="140" fill="white" transform="translate(0 0.558838)"/>
</clipPath>
</defs>
</svg>
