<svg width="16" height="17" viewBox="0 0 16 17" fill="none" xmlns="http://www.w3.org/2000/svg">
<g clip-path="url(#clip0_642_48)">
<path d="M4.88878 8.03589L4.44434 9.41367H5.33322L4.88878 8.03589Z" fill="white"/>
<path d="M13.4667 2.03589H6.35555V4.25811H8.13333V5.147H2.35555C1.59999 5.147 1.02222 5.72478 1.02222 6.48033V11.3692C1.02222 12.1248 1.59999 12.7026 2.35555 12.7026H2.79999V14.9692L5.59999 12.7026H8.57777V9.59144H13.4667C14.2222 9.59144 14.8 9.01367 14.8 8.25811V3.36922C14.8 2.61367 14.2222 2.03589 13.4667 2.03589ZM5.82222 10.8803L5.59999 10.1692H4.22222L3.95555 10.8803H2.88888L4.35555 6.92478H5.42222L6.88888 10.8803H5.82222ZM12.5778 7.36922V8.25811C12 8.25811 11.3778 8.08033 10.8444 7.81367C10.3111 8.08033 9.68888 8.21367 9.06666 8.25811L9.02222 7.36922C9.33333 7.36922 9.64444 7.32478 9.95555 7.23589C9.55555 6.83589 9.28888 6.347 9.15555 5.81367H10.0889C10.2222 6.21367 10.4889 6.52478 10.8 6.79144C11.2889 6.39144 11.6 5.81367 11.6444 5.147H8.97777V4.25811H10.3111V3.36922H11.2V4.25811H12.6667L12.7111 4.70256C12.7556 5.63589 12.4 6.56922 11.7333 7.23589C12.0444 7.32478 12.3111 7.36922 12.5778 7.36922Z" fill="white"/>
</g>
<defs>
<clipPath id="clip0_642_48">
<rect width="16" height="16" fill="white" transform="translate(0 0.702637)"/>
</clipPath>
</defs>
</svg>
