<svg width="120" height="32" viewBox="0 0 120 32" fill="none" xmlns="http://www.w3.org/2000/svg">
<g clip-path="url(#clip0_581_561)">
<path d="M87.5452 2.62392C87.5452 1.38913 88.5723 0.386963 89.8386 0.386963H116.282C117.549 0.386963 118.576 1.38913 118.576 2.62392V29.3777C118.576 30.6129 117.549 31.6142 116.282 31.6142H89.8386C88.5723 31.6142 87.5452 30.6129 87.5452 29.3781V2.62392Z" fill="#C2C2C2"/>
<path d="M0.681152 26.5445H13.6311V22.2926H5.36844V6.07242H0.681152V26.5445ZM20.1876 26.5445V12.4438H15.5007V26.5445H20.1876ZM17.8445 10.5189C19.4786 10.5189 20.4959 9.43604 20.4959 8.08207C20.4656 6.69862 19.4786 5.64648 17.8756 5.64648C16.2723 5.64648 15.2238 6.69902 15.2238 8.08207C15.2238 9.43604 16.2411 10.5189 17.8138 10.5189H17.8445ZM22.3635 26.5445H27.0504V18.6697C27.0504 18.2483 27.0807 17.8269 27.2048 17.5267C27.543 16.6846 28.3142 15.8123 29.6092 15.8123C31.3056 15.8123 31.9842 17.1057 31.9842 19.0002V26.5441H36.6702V18.4592C36.6702 14.1278 34.3579 12.1124 31.274 12.1124C28.7459 12.1124 27.6356 13.5258 27.0188 14.4886H27.0504V12.4438H22.3635C22.4253 13.767 22.3635 26.5445 22.3635 26.5445ZM43.2824 6.07242H38.5955V26.5445H43.2824V21.9727L44.4537 20.498L48.1233 26.5445H53.8889L47.7227 17.7912L53.1181 11.8364H47.4762C47.4762 11.8364 43.6219 17.1638 43.2824 17.7962V6.07242Z" fill="#C2C2C2"/>
<path d="M66.4223 20.6626C66.4841 20.3006 66.5767 19.606 66.5767 18.8205C66.5767 15.1755 64.7264 11.4748 59.8548 11.4748C54.6437 11.4748 52.2384 15.5961 52.2384 19.334C52.2384 23.957 55.1679 26.8439 60.286 26.8439C62.3215 26.8439 64.2017 26.5441 65.7441 25.9122L65.1273 22.8168C63.8626 23.2362 62.5676 23.4463 60.9647 23.4463C58.7756 23.4463 56.8643 22.5473 56.7099 20.6323L66.4223 20.6618V20.6626ZM56.6791 17.4919C56.8024 16.2886 57.6047 14.5132 59.6086 14.5132C61.7358 14.5132 62.2298 16.4086 62.2298 17.4919H56.6796H56.6791ZM78.1452 6.07243V13.1593H78.0834C77.4048 12.1673 75.9865 11.5055 74.1067 11.5055C70.4985 11.5055 67.3229 14.3928 67.3532 19.3254C67.3532 23.8976 70.2213 26.8755 73.7975 26.8755C75.7404 26.8755 77.5899 26.0326 78.5155 24.4083H78.6076L78.7931 26.5445H82.9554C82.8939 25.5518 82.8317 23.8374 82.8317 22.153V6.07202H78.1448L78.1452 6.07243ZM78.1452 20.0176C78.1452 20.378 78.1145 20.7396 78.0523 21.0394C77.7758 22.3336 76.6655 23.235 75.3087 23.235C73.3666 23.235 72.1019 21.6713 72.1019 19.205C72.1019 16.8894 73.1819 15.0243 75.3398 15.0243C76.7888 15.0243 77.8061 16.0167 78.0838 17.2494C78.1452 17.521 78.1452 17.822 78.1452 18.0923V20.0172V20.0176Z" fill="#C2C2C2"/>
<path d="M96.9517 26.5272V12.4264H92.2648V26.5272H96.9521H96.9517ZM94.6091 10.5016C96.2432 10.5016 97.2605 9.4187 97.2605 8.06556C97.2298 6.68169 96.2432 5.62915 94.6402 5.62915C93.036 5.62915 91.9884 6.68169 91.9884 8.06556C91.9884 9.4187 93.0053 10.5016 94.5784 10.5016H94.6087H94.6091ZM99.5458 26.5272H104.232V18.6536C104.232 18.2326 104.263 17.8108 104.387 17.5102C104.725 16.6677 105.497 15.7958 106.792 15.7958C108.487 15.7958 109.166 17.0887 109.166 18.9845V26.5272H113.852V18.4423C113.852 14.1113 111.54 12.0959 108.457 12.0959C105.929 12.0959 104.818 13.5089 104.202 14.4713H104.233V12.4268H99.5462C99.6072 13.7497 99.5458 26.5276 99.5458 26.5276V26.5272Z" fill="#242424"/>
</g>
<defs>
<clipPath id="clip0_581_561">
<rect width="118.737" height="32" fill="white" transform="translate(0.431519)"/>
</clipPath>
</defs>
</svg>
