<svg width="155" height="32" viewBox="0 0 155 32" fill="none" xmlns="http://www.w3.org/2000/svg">
<g clip-path="url(#clip0_868_9)">
<path d="M7.42174 12.4239C9.30061 12.4239 10.8611 13.3935 11.6035 14.4389V12.6813H14.467V25.7267H12.4067C12.2991 25.7272 12.1925 25.7064 12.093 25.6654C11.9935 25.6245 11.9031 25.5642 11.827 25.4881C11.7509 25.412 11.6906 25.3216 11.6497 25.2222C11.6087 25.1227 11.5879 25.016 11.5884 24.9084V23.9691C10.8611 25.0297 9.30061 25.9995 7.42174 25.9995C3.84627 25.9995 1.13397 22.9388 1.13397 19.2116C1.13397 15.4841 3.84627 12.4237 7.42174 12.4237M7.93702 15.0298C5.61875 15.0298 4.0429 16.8631 4.0429 19.2116C4.0429 21.5599 5.60363 23.3933 7.93702 23.3933C10.255 23.3933 11.8309 21.5601 11.8309 19.2116C11.8309 16.8633 10.2702 15.0298 7.93677 15.0298M17.7246 12.6813H20.6036V14.454C21.3914 13.151 22.8762 12.4237 24.5733 12.4237C27.6035 12.4237 29.558 14.5602 29.558 17.8783V25.7265H27.4974C27.3898 25.7269 27.2832 25.7061 27.1837 25.6651C27.0843 25.6241 26.9939 25.5639 26.9178 25.4878C26.8418 25.4117 26.7816 25.3213 26.7406 25.2218C26.6997 25.1224 26.6788 25.0158 26.6793 24.9082V18.3484C26.6793 16.2875 25.6339 15.0301 23.967 15.0301C22.0582 15.0301 20.6036 16.5149 20.6036 19.3026V25.727H18.5429C18.4354 25.7274 18.3288 25.7066 18.2293 25.6656C18.1298 25.6246 18.0395 25.5644 17.9634 25.4883C17.8874 25.4122 17.8271 25.3218 17.7862 25.2223C17.7452 25.1229 17.7244 25.0163 17.7249 24.9087V12.6813H17.7246ZM38.1187 12.4237C39.9973 12.4237 41.558 13.3935 42.3004 14.4387V6.16615H45.164V25.7419H43.1033C42.9958 25.7423 42.8892 25.7214 42.7897 25.6805C42.6902 25.6395 42.5999 25.5792 42.5238 25.5032C42.4478 25.4271 42.3875 25.3367 42.3466 25.2372C42.3056 25.1377 42.2848 25.0311 42.2853 24.9236V23.9843C41.558 25.0297 39.9821 25.9993 38.1035 25.9993C34.5278 25.9993 31.8155 22.9388 31.8155 19.2116C31.8309 15.4841 34.5429 12.4237 38.1187 12.4237ZM38.6339 15.0298C36.3157 15.0298 34.7398 16.8631 34.7398 19.2116C34.7398 21.5599 36.3005 23.3933 38.6339 23.3933C40.952 23.3933 42.5275 21.5601 42.5275 19.2116C42.5275 16.8633 40.952 15.0298 38.6337 15.0298M48.4215 12.6813H51.2851V14.9996C51.785 13.5147 53.2398 12.5449 54.7247 12.5449C55.0882 12.5449 55.4517 12.5752 55.8458 12.6511V15.6054C55.3459 15.4538 54.9367 15.3628 54.4063 15.3628C52.7548 15.3628 51.27 16.7415 51.27 19.3628V25.7265H49.2093C49.1018 25.7269 48.9952 25.7061 48.8957 25.6651C48.7962 25.6241 48.7059 25.5639 48.6298 25.4878C48.5538 25.4117 48.4935 25.3213 48.4526 25.2218C48.4117 25.1224 48.3908 25.0158 48.3913 24.9082V12.6813H48.4215ZM63.6032 25.9993C59.7399 25.9993 56.7699 22.9993 56.7699 19.2116C56.7699 15.4236 59.7396 12.4237 63.6032 12.4237C67.4669 12.4237 70.4365 15.4236 70.4365 19.2116C70.4365 22.9993 67.4669 25.9995 63.6032 25.9995M63.6032 23.3328C65.9064 23.3328 67.5125 21.5296 67.5125 19.2116C67.5125 16.8933 65.8913 15.0903 63.6032 15.0903C61.2852 15.0903 59.664 16.8933 59.664 19.2116C59.664 21.5296 61.2852 23.3328 63.6032 23.3328ZM74.194 9.83288C73.1486 9.83288 72.27 8.9692 72.27 7.90863C72.27 6.86319 73.164 5.99951 74.194 5.99951C75.27 5.99951 76.1031 6.86319 76.1031 7.90863C76.1031 8.98432 75.27 9.83288 74.194 9.83288ZM72.7699 12.6813H75.6335V25.7267H73.588C73.4804 25.7272 73.3738 25.7063 73.2743 25.6653C73.1749 25.6244 73.0845 25.5641 73.0085 25.488C72.9324 25.412 72.8722 25.3216 72.8312 25.2221C72.7903 25.1226 72.7695 25.016 72.7699 24.9084V12.6813ZM84.2849 12.4237C86.1638 12.4237 87.7245 13.3935 88.4669 14.4387V6.16615H91.3305V25.7419H89.2698C89.1622 25.7423 89.0556 25.7215 88.9561 25.6805C88.8566 25.6396 88.7662 25.5793 88.6902 25.5033C88.6141 25.4272 88.5538 25.3368 88.5129 25.2373C88.4719 25.1378 88.4511 25.0312 88.4515 24.9236V23.9843C87.7245 25.0297 86.1486 25.9993 84.2698 25.9993C80.6941 25.9993 77.982 22.9388 77.982 19.2116C77.9974 15.4841 80.7092 12.4237 84.2849 12.4237ZM84.8153 15.0298C82.497 15.0298 80.9212 16.8631 80.9212 19.2116C80.9212 21.5599 82.4819 23.3933 84.8153 23.3933C87.1336 23.3933 88.7094 21.5601 88.7094 19.2116C88.7094 16.8633 87.1336 15.0298 84.8153 15.0298Z" fill="#C2C2C2"/>
<path d="M139.502 23.389C138.892 23.3889 138.308 23.1467 137.877 22.7158C137.446 22.2848 137.204 21.7002 137.203 21.0907C137.204 20.4812 137.446 19.8967 137.877 19.4657C138.308 19.0347 138.892 18.7925 139.502 18.7924C140.111 18.7925 140.696 19.0347 141.127 19.4657C141.558 19.8967 141.8 20.4812 141.8 21.0907C141.8 21.7002 141.558 22.2848 141.127 22.7158C140.696 23.1467 140.111 23.3889 139.502 23.389ZM114.197 23.389C113.588 23.389 113.003 23.1469 112.572 22.7159C112.141 22.2849 111.899 21.7003 111.899 21.0907C111.899 20.4812 112.141 19.8967 112.572 19.4657C113.003 19.0347 113.588 18.7925 114.197 18.7924C114.807 18.7925 115.391 19.0347 115.822 19.4657C116.253 19.8967 116.495 20.4812 116.495 21.0907C116.495 21.7002 116.253 22.2848 115.822 22.7158C115.391 23.1467 114.807 23.3889 114.197 23.389M140.316 9.59947L144.912 1.67521C145.176 1.22033 145.008 0.645949 144.553 0.382658C144.098 0.119367 143.524 0.286658 143.26 0.741544L138.616 8.7618C135.073 7.13344 131.099 6.22408 126.861 6.22408C122.624 6.22408 118.626 7.13344 115.083 8.73749L110.438 0.717645C110.175 0.262759 109.601 0.095063 109.146 0.358759C108.691 0.62205 108.523 1.19643 108.787 1.65132L113.359 9.57557C105.507 13.8607 100.12 21.8085 99.3304 31.2173H154.321C153.555 21.8328 148.192 13.8846 140.316 9.59906" fill="#C2C2C2"/>
</g>
<defs>
<clipPath id="clip0_868_9">
<rect width="154" height="32" fill="white" transform="translate(0.403076 -0.000488281)"/>
</clipPath>
</defs>
</svg>
