<svg width="16" height="17" viewBox="0 0 16 17" fill="none" xmlns="http://www.w3.org/2000/svg">
<path d="M3.99992 5.36938H7.33325C7.51006 5.36938 7.67963 5.43962 7.80466 5.56465C7.92968 5.68967 7.99992 5.85924 7.99992 6.03605C7.99992 6.21286 7.92968 6.38243 7.80466 6.50746C7.67963 6.63248 7.51006 6.70272 7.33325 6.70272H3.99992C3.82311 6.70272 3.65354 6.63248 3.52851 6.50746C3.40349 6.38243 3.33325 6.21286 3.33325 6.03605C3.33325 5.85924 3.40349 5.68967 3.52851 5.56465C3.65354 5.43962 3.82311 5.36938 3.99992 5.36938V5.36938ZM8.66659 10.7027H11.9999C12.1767 10.7027 12.3463 10.773 12.4713 10.898C12.5963 11.023 12.6666 11.1926 12.6666 11.3694C12.6666 11.5462 12.5963 11.7158 12.4713 11.8408C12.3463 11.9658 12.1767 12.0361 11.9999 12.0361H8.66659C8.48977 12.0361 8.32021 11.9658 8.19518 11.8408C8.07016 11.7158 7.99992 11.5462 7.99992 11.3694C7.99992 11.1926 8.07016 11.023 8.19518 10.898C8.32021 10.773 8.48977 10.7027 8.66659 10.7027ZM3.99992 8.03605H11.9999C12.1767 8.03605 12.3463 8.10629 12.4713 8.23131C12.5963 8.35634 12.6666 8.52591 12.6666 8.70272C12.6666 8.87953 12.5963 9.0491 12.4713 9.17412C12.3463 9.29915 12.1767 9.36938 11.9999 9.36938H3.99992C3.82311 9.36938 3.65354 9.29915 3.52851 9.17412C3.40349 9.0491 3.33325 8.87953 3.33325 8.70272C3.33325 8.52591 3.40349 8.35634 3.52851 8.23131C3.65354 8.10629 3.82311 8.03605 3.99992 8.03605V8.03605Z" fill="white"/>
</svg>
