<svg width="145" height="32" viewBox="0 0 145 32" fill="none" xmlns="http://www.w3.org/2000/svg">
<g clip-path="url(#clip0_835_70)">
<path d="M144.481 14.9454V12.4045H141.325V8.45421L141.219 8.48688L138.255 9.3936L138.197 9.41142V12.4045H133.519V10.7373C133.519 9.96087 133.693 9.3667 134.035 8.97047C134.375 8.57895 134.861 8.37997 135.48 8.37997C135.926 8.37997 136.387 8.48496 136.852 8.69199L136.968 8.74388V6.06792L136.913 6.04783C136.48 5.89216 135.891 5.81372 135.161 5.81372C134.241 5.81372 133.404 6.01393 132.675 6.41086C131.945 6.80832 131.371 7.37576 130.969 8.09729C130.568 8.81795 130.365 9.65025 130.365 10.5713V12.4045H128.168V14.9454H130.365V25.6497H133.519V14.9454H138.197V21.7479C138.197 24.5495 139.518 25.9693 142.124 25.9693C142.553 25.9693 143.003 25.919 143.464 25.8206C143.932 25.7198 144.251 25.619 144.439 25.5114L144.481 25.4869V22.9224L144.352 23.0073C144.181 23.1216 143.968 23.2147 143.718 23.2839C143.467 23.3545 143.257 23.3899 143.095 23.3899C142.484 23.3899 142.033 23.2254 141.752 22.9008C141.469 22.5732 141.325 22.0002 141.325 21.1988V14.9454H144.481ZM121.124 23.3902C119.979 23.3902 119.077 23.0105 118.441 22.2628C117.801 21.5112 117.477 20.4398 117.477 19.0785C117.477 17.674 117.801 16.5748 118.441 15.8099C119.078 15.0501 119.972 14.6645 121.099 14.6645C122.192 14.6645 123.063 15.0328 123.686 15.7598C124.313 16.4904 124.631 17.5809 124.631 19.0018C124.631 20.4401 124.332 21.5449 123.742 22.2839C123.157 23.0175 122.276 23.3902 121.124 23.3902ZM121.265 12.0854C119.081 12.0854 117.346 12.7253 116.109 13.9875C114.873 15.25 114.246 16.9968 114.246 19.1803C114.246 21.2541 114.858 22.9221 116.065 24.1374C117.271 25.3532 118.914 25.969 120.945 25.969C123.062 25.969 124.763 25.3201 125.999 24.0404C127.235 22.7619 127.862 21.0317 127.862 18.8992C127.862 16.793 127.274 15.1125 126.114 13.9053C124.954 12.6975 123.322 12.0854 121.265 12.0854ZM109.161 12.0853C107.675 12.0853 106.446 12.4653 105.507 13.2146C104.563 13.9683 104.084 14.9569 104.084 16.1531C104.084 16.7749 104.187 17.3273 104.391 17.7957C104.596 18.2658 104.912 18.6795 105.333 19.0268C105.751 19.3714 106.396 19.7323 107.251 20.0994C107.969 20.395 108.505 20.6451 108.845 20.8422C109.178 21.0353 109.414 21.2295 109.547 21.4186C109.676 21.6036 109.742 21.8567 109.742 22.1694C109.742 23.0592 109.076 23.4921 107.705 23.4921C107.196 23.4921 106.616 23.3861 105.98 23.1766C105.344 22.9675 104.75 22.6668 104.215 22.2813L104.084 22.1874V25.224L104.132 25.2464C104.578 25.4523 105.141 25.626 105.804 25.7628C106.466 25.8996 107.067 25.9693 107.59 25.9693C109.202 25.9693 110.5 25.5874 111.447 24.8337C112.401 24.0748 112.884 23.0629 112.884 21.8251C112.884 20.9324 112.624 20.1666 112.111 19.5492C111.602 18.9367 110.718 18.3745 109.486 17.8775C108.504 17.4833 107.875 17.1561 107.615 16.9051C107.365 16.6624 107.238 16.3193 107.238 15.8848C107.238 15.4995 107.395 15.191 107.717 14.941C108.041 14.6898 108.493 14.5621 109.059 14.5621C109.584 14.5621 110.122 14.6451 110.657 14.8077C111.191 14.9704 111.66 15.1882 112.052 15.4548L112.181 15.5429V12.6623L112.132 12.641C111.77 12.4861 111.294 12.3535 110.715 12.2458C110.138 12.1393 109.615 12.0853 109.161 12.0853ZM95.8612 23.3902C94.7167 23.3902 93.8138 23.0105 93.1779 22.2628C92.5377 21.5112 92.214 20.4401 92.214 19.0785C92.214 17.674 92.5381 16.5748 93.1786 15.8099C93.8145 15.0501 94.7083 14.6645 95.8358 14.6645C96.9291 14.6645 97.7997 15.0328 98.4234 15.7598C99.0502 16.4904 99.3682 17.5809 99.3682 19.0018C99.3682 20.4401 99.0689 21.5449 98.4791 22.2839C97.8935 23.0175 97.0132 23.3902 95.8612 23.3902ZM96.002 12.0854C93.8173 12.0854 92.0825 12.7253 90.8462 13.9875C89.6102 15.25 88.983 16.9968 88.983 19.1803C88.983 21.2549 89.5952 22.9221 90.8019 24.1374C92.0086 25.3532 93.6506 25.969 95.6824 25.969C97.7992 25.969 99.4999 25.3201 100.736 24.0404C101.972 22.7619 102.599 21.0317 102.599 18.8992C102.599 16.793 102.011 15.1125 100.851 13.9053C99.6905 12.6975 98.0589 12.0854 96.002 12.0854ZM84.1951 14.6982V12.4045H81.0795V25.6494H84.1951V18.8742C84.1951 17.722 84.4563 16.7756 84.9717 16.0607C85.4806 15.3544 86.1588 14.9964 86.9868 14.9964C87.2673 14.9964 87.5823 15.0427 87.9235 15.1342C88.2612 15.2253 88.5058 15.324 88.6501 15.4279L88.781 15.5228V12.3818L88.7305 12.3601C88.4403 12.2368 88.0299 12.1746 87.5105 12.1746C86.7277 12.1746 86.0269 12.4261 85.4268 12.9214C84.9001 13.3568 84.5192 13.9538 84.2282 14.6982H84.1951ZM75.5 12.0853C74.0707 12.0853 72.7957 12.3919 71.7112 12.996C70.6245 13.6016 69.7842 14.4662 69.2123 15.5656C68.6432 16.6624 68.3542 17.9435 68.3542 19.3721C68.3542 20.6235 68.6344 21.772 69.1882 22.7841C69.7424 23.7979 70.5268 24.591 71.5197 25.1412C72.5111 25.6906 73.657 25.9693 74.9257 25.9693C76.4064 25.9693 77.6705 25.6732 78.6842 25.0895L78.725 25.0659V22.2115L78.5942 22.3071C78.1351 22.6415 77.622 22.9084 77.0699 23.1008C76.5192 23.293 76.0171 23.3901 75.577 23.3901C74.3544 23.3901 73.3731 23.0075 72.6607 22.2535C71.9467 21.4982 71.5847 20.4379 71.5847 19.1035C71.5847 17.7608 71.9622 16.6732 72.7063 15.8706C73.4479 15.0705 74.4311 14.6646 75.6284 14.6646C76.6525 14.6646 77.6504 15.0114 78.5945 15.6963L78.725 15.7911V12.7836L78.6829 12.7598C78.3276 12.561 77.8431 12.3968 77.2414 12.2722C76.6426 12.148 76.0568 12.0853 75.5 12.0853ZM66.2084 12.4045H63.0927V25.6494H66.2084V12.4045ZM64.6823 6.76206C64.1695 6.76206 63.7223 6.93659 63.3549 7.2825C62.9859 7.62947 62.7986 8.06623 62.7986 8.58161C62.7986 9.08895 62.9837 9.51768 63.349 9.85538C63.712 10.192 64.1606 10.3627 64.6823 10.3627C65.2038 10.3627 65.6542 10.192 66.0216 9.85591C66.3915 9.51768 66.5789 9.08895 66.5789 8.58161C66.5789 8.08422 66.3965 7.65183 66.0368 7.29648C65.6776 6.94183 65.2218 6.76206 64.6823 6.76206ZM56.9086 11.4273V25.6494H60.0883V7.16765H55.6876L50.0939 20.8953L44.6657 7.16765H40.0858V25.6494H43.0737V11.4259H43.1765L48.9085 25.6494H51.1635L56.8061 11.4273H56.9086Z" fill="#C2C2C2"/>
<path d="M14.6567 15.6482H0V0.991455H14.6567V15.6482Z" fill="#C2C2C2"/>
<path d="M30.8395 15.6482H16.1829V0.991455H30.8395V15.6482Z" fill="#C2C2C2"/>
<path d="M14.6564 31.8366H0V17.1799H14.6564V31.8366Z" fill="#C2C2C2"/>
<path d="M30.8395 31.8366H16.1829V17.1799H30.8395V31.8366Z" fill="#C2C2C2"/>
</g>
<defs>
<clipPath id="clip0_835_70">
<rect width="144.516" height="32" fill="white" transform="translate(0 -0.000488281)"/>
</clipPath>
</defs>
</svg>
