<svg width="140" height="141" viewBox="0 0 140 141" fill="none" xmlns="http://www.w3.org/2000/svg">
<path d="M95.5938 136.184H44.4062C39.2656 136.184 35 132.028 35 126.778V14.3401C35 9.19946 39.2656 4.93384 44.4062 4.93384H95.5938C100.734 4.93384 105 9.09009 105 14.3401V126.887C105 132.028 100.734 136.184 95.5938 136.184Z" fill="#424242"/>
<path d="M94.9046 131.929H43.6734C41.3218 131.929 39.4187 130.026 39.4187 127.674V22.051C39.4187 19.7104 41.3218 17.8073 43.6624 17.8073H96.3265C98.6781 17.8073 100.581 19.7104 100.581 22.0619V126.985C100.581 128.003 99.0499 131.929 94.9046 131.929Z" fill="black"/>
<path d="M80.5547 13.2354H59.5547C58.7891 13.2354 58.2422 12.5791 58.2422 11.9229C58.2422 11.2666 58.8984 10.6104 59.5547 10.6104H80.4453C81.2109 10.6104 81.7578 11.2666 81.7578 11.9229C81.7578 12.5791 81.2109 13.2354 80.5547 13.2354Z" fill="#212121"/>
<path d="M95.5938 7.12134C99.575 7.12134 102.812 10.3588 102.812 14.3401V126.887C102.812 130.803 99.575 133.996 95.5938 133.996H44.4062C40.425 133.996 37.1875 130.759 37.1875 126.778V14.3401C37.1875 10.4245 40.4906 7.12134 44.4062 7.12134H95.5938ZM95.5938 4.93384H44.4062C39.2656 4.93384 35 9.19946 35 14.3401V126.778C35 132.028 39.2656 136.184 44.4062 136.184H95.5938C100.734 136.184 105 132.028 105 126.887V14.3401C105 9.09009 100.734 4.93384 95.5938 4.93384Z" fill="#757575"/>
<path d="M52.8829 33.3276H45.9267C45.1282 33.3276 44.4829 32.6823 44.4829 31.8839V24.9276C44.4829 24.1292 45.1282 23.4839 45.9267 23.4839H52.8829C53.6813 23.4839 54.3267 24.1292 54.3267 24.9276V31.8839C54.3267 32.6823 53.6813 33.3276 52.8829 33.3276Z" fill="#EAB56E"/>
<path d="M66.6095 33.3276H59.6532C58.8548 33.3276 58.2095 32.6823 58.2095 31.8839V24.9276C58.2095 24.1292 58.8548 23.4839 59.6532 23.4839H66.6095C67.4079 23.4839 68.0532 24.1292 68.0532 24.9276V31.8839C68.0532 32.6823 67.4079 33.3276 66.6095 33.3276Z" fill="#FB8C00"/>
<path d="M80.3358 33.3276H73.3905C72.5921 33.3276 71.9468 32.6823 71.9468 31.8839V24.9276C71.9468 24.1292 72.5921 23.4839 73.3905 23.4839H80.3468C81.1452 23.4839 81.7905 24.1292 81.7905 24.9276V31.8839C81.7905 32.6823 81.1452 33.3276 80.3358 33.3276Z" fill="#FF80AB"/>
<path d="M94.0733 33.3276H87.1171C86.3187 33.3276 85.6733 32.6823 85.6733 31.8839V24.9276C85.6733 24.1292 86.3187 23.4839 87.1171 23.4839H94.0733C94.8718 23.4839 95.5171 24.1292 95.5171 24.9276V31.8839C95.5171 32.6823 94.8718 33.3276 94.0733 33.3276Z" fill="url(#paint0_linear_587_900)"/>
<path d="M52.8829 48.8151H45.9267C45.1282 48.8151 44.4829 48.1698 44.4829 47.3713V40.4151C44.4829 39.6166 45.1282 38.9713 45.9267 38.9713H52.8829C53.6813 38.9713 54.3267 39.6166 54.3267 40.4151V47.3713C54.3267 48.1698 53.6813 48.8151 52.8829 48.8151Z" fill="#00BFA5"/>
<path d="M66.6095 48.8151H59.6532C58.8548 48.8151 58.2095 48.1698 58.2095 47.3713V40.4151C58.2095 39.6166 58.8548 38.9713 59.6532 38.9713H66.6095C67.4079 38.9713 68.0532 39.6166 68.0532 40.4151V47.3713C68.0532 48.1698 67.4079 48.8151 66.6095 48.8151Z" fill="#81D4FA"/>
<path d="M80.3358 48.8151H73.3905C72.5921 48.8151 71.9468 48.1698 71.9468 47.3713V40.4151C71.9468 39.6166 72.5921 38.9713 73.3905 38.9713H80.3468C81.1452 38.9713 81.7905 39.6166 81.7905 40.4151V47.3713C81.7905 48.1698 81.1452 48.8151 80.3358 48.8151Z" fill="#FB8C00"/>
<path d="M94.0733 48.8151H87.1171C86.3187 48.8151 85.6733 48.1698 85.6733 47.3713V40.4151C85.6733 39.6166 86.3187 38.9713 87.1171 38.9713H94.0733C94.8718 38.9713 95.5171 39.6166 95.5171 40.4151V47.3713C95.5171 48.1698 94.8718 48.8151 94.0733 48.8151Z" fill="#EAB56E"/>
<path d="M52.8829 64.3026H45.9267C45.1282 64.3026 44.4829 63.6573 44.4829 62.8589V55.9026C44.4829 55.1042 45.1282 54.4589 45.9267 54.4589H52.8829C53.6813 54.4589 54.3267 55.1042 54.3267 55.9026V62.8589C54.3267 63.6573 53.6813 64.3026 52.8829 64.3026Z" fill="#FB8C00"/>
<path d="M66.6095 64.3026H59.6532C58.8548 64.3026 58.2095 63.6573 58.2095 62.8589V55.9026C58.2095 55.1042 58.8548 54.4589 59.6532 54.4589H66.6095C67.4079 54.4589 68.0532 55.1042 68.0532 55.9026V62.8589C68.0532 63.6573 67.4079 64.3026 66.6095 64.3026Z" fill="#FF80AB"/>
<path d="M80.3358 64.3026H73.3905C72.5921 64.3026 71.9468 63.6573 71.9468 62.8589V55.9026C71.9468 55.1042 72.5921 54.4589 73.3905 54.4589H80.3468C81.1452 54.4589 81.7905 55.1042 81.7905 55.9026V62.8589C81.7905 63.6573 81.1452 64.3026 80.3358 64.3026Z" fill="#00BFA5"/>
<path d="M94.0733 64.3026H87.1171C86.3187 64.3026 85.6733 63.6573 85.6733 62.8589V55.9026C85.6733 55.1042 86.3187 54.4589 87.1171 54.4589H94.0733C94.8718 54.4589 95.5171 55.1042 95.5171 55.9026V62.8589C95.5171 63.6573 94.8718 64.3026 94.0733 64.3026Z" fill="url(#paint1_linear_587_900)"/>
<path d="M52.8829 79.79H45.9267C45.1282 79.79 44.4829 79.1447 44.4829 78.3463V71.39C44.4829 70.5916 45.1282 69.9463 45.9267 69.9463H52.8829C53.6813 69.9463 54.3267 70.5916 54.3267 71.39V78.3463C54.3267 79.1447 53.6813 79.79 52.8829 79.79Z" fill="url(#paint2_linear_587_900)"/>
<path d="M66.6095 79.79H59.6532C58.8548 79.79 58.2095 79.1447 58.2095 78.3463V71.39C58.2095 70.5916 58.8548 69.9463 59.6532 69.9463H66.6095C67.4079 69.9463 68.0532 70.5916 68.0532 71.39V78.3463C68.0532 79.1447 67.4079 79.79 66.6095 79.79Z" fill="#81D4FA"/>
<path d="M52.8829 126.253H45.9267C45.1282 126.253 44.4829 125.607 44.4829 124.809V117.853C44.4829 117.054 45.1282 116.409 45.9267 116.409H52.8829C53.6813 116.409 54.3267 117.054 54.3267 117.853V124.809C54.3267 125.596 53.6813 126.253 52.8829 126.253Z" fill="#81D4FA"/>
<path d="M66.6095 126.253H59.6532C58.8548 126.253 58.2095 125.607 58.2095 124.809V117.853C58.2095 117.054 58.8548 116.409 59.6532 116.409H66.6095C67.4079 116.409 68.0532 117.054 68.0532 117.853V124.809C68.0532 125.596 67.4079 126.253 66.6095 126.253Z" fill="url(#paint3_linear_587_900)"/>
<path d="M80.3358 126.253H73.3905C72.5921 126.253 71.9468 125.607 71.9468 124.809V117.853C71.9468 117.054 72.5921 116.409 73.3905 116.409H80.3468C81.1452 116.409 81.7905 117.054 81.7905 117.853V124.809C81.7905 125.596 81.1452 126.253 80.3358 126.253Z" fill="#00BFA5"/>
<path d="M94.0733 126.253H87.1171C86.3187 126.253 85.6733 125.607 85.6733 124.809V117.853C85.6733 117.054 86.3187 116.409 87.1171 116.409H94.0733C94.8718 116.409 95.5171 117.054 95.5171 117.853V124.809C95.5171 125.596 94.8718 126.253 94.0733 126.253Z" fill="#FF80AB"/>
<defs>
<linearGradient id="paint0_linear_587_900" x1="82.0893" y1="33.3246" x2="96.2496" y2="32.1161" gradientUnits="userSpaceOnUse">
<stop stop-color="#61285B"/>
<stop offset="0.432292" stop-color="#45389E"/>
<stop offset="1" stop-color="#1E50FF"/>
</linearGradient>
<linearGradient id="paint1_linear_587_900" x1="82.0893" y1="64.2996" x2="96.2496" y2="63.0911" gradientUnits="userSpaceOnUse">
<stop stop-color="#61285B"/>
<stop offset="0.432292" stop-color="#45389E"/>
<stop offset="1" stop-color="#1E50FF"/>
</linearGradient>
<linearGradient id="paint2_linear_587_900" x1="40.8989" y1="79.787" x2="55.0591" y2="78.5785" gradientUnits="userSpaceOnUse">
<stop stop-color="#61285B"/>
<stop offset="0.432292" stop-color="#45389E"/>
<stop offset="1" stop-color="#1E50FF"/>
</linearGradient>
<linearGradient id="paint3_linear_587_900" x1="54.6255" y1="126.25" x2="68.7857" y2="125.041" gradientUnits="userSpaceOnUse">
<stop stop-color="#61285B"/>
<stop offset="0.432292" stop-color="#45389E"/>
<stop offset="1" stop-color="#1E50FF"/>
</linearGradient>
</defs>
</svg>
