<svg width="140" height="141" viewBox="0 0 140 141" fill="none" xmlns="http://www.w3.org/2000/svg">
<path d="M8.81038 74.857C11.3235 43.2892 37.7969 18.3659 69.9999 18.3659C102.203 18.3659 128.676 43.2892 131.19 74.857H136.115C133.59 40.5786 104.912 13.4536 69.9999 13.4536C35.0877 13.4536 6.41015 40.5786 3.8855 74.857H8.81038Z" fill="url(#paint0_linear_587_1071)"/>
<path d="M87.8435 15.9097H52.1566C46.1648 17.5869 40.5166 20.0851 35.3358 23.278H45.9829C53.3646 20.1261 61.4778 18.366 70 18.366C78.5223 18.366 86.6354 20.1261 94.0171 23.2783H104.664C99.4834 20.0853 93.835 17.5869 87.8435 15.9097Z" fill="url(#paint1_linear_587_1071)"/>
<path d="M9.82461 85.9096H2.45602C1.0984 85.9096 0 84.8099 0 83.4536V76.0853C0 74.7288 1.0984 73.6293 2.45602 73.6293H9.82461C11.1822 73.6293 12.2806 74.729 12.2806 76.0853V83.4536C12.2806 84.8099 11.1822 85.9096 9.82461 85.9096ZM4.9123 80.9973H7.36832V78.5413H4.9123V80.9973Z" fill="#707487"/>
<path d="M135.088 78.5413V80.9973H132.632V78.5413H135.088ZM137.544 73.629H130.175C128.819 73.629 127.719 74.7288 127.719 76.085V83.4534C127.719 84.8099 128.819 85.9094 130.175 85.9094H137.544C138.9 85.9094 140 84.8096 140 83.4534V76.085C140 74.7288 138.9 73.629 137.544 73.629Z" fill="#707487"/>
<path d="M133.86 13.4536H6.14026V18.3659H133.86V13.4536Z" fill="#464655"/>
<path d="M73.6843 22.0499H66.316C64.9595 22.0499 63.86 20.9501 63.86 19.5939V12.2255C63.86 10.869 64.9597 9.76953 66.316 9.76953H73.6843C75.0408 9.76953 76.1403 10.8693 76.1403 12.2255V19.5939C76.1403 20.9504 75.0406 22.0499 73.6843 22.0499Z" fill="#5B5D6E"/>
<path d="M6.14031 22.0499C9.53151 22.0499 12.2806 19.3008 12.2806 15.9096C12.2806 12.5184 9.53151 9.76929 6.14031 9.76929C2.74911 9.76929 0 12.5184 0 15.9096C0 19.3008 2.74911 22.0499 6.14031 22.0499Z" fill="#5B5D6E"/>
<path d="M133.86 22.0499C137.251 22.0499 140 19.3008 140 15.9096C140 12.5184 137.251 9.76929 133.86 9.76929C130.468 9.76929 127.719 12.5184 127.719 15.9096C127.719 19.3008 130.468 22.0499 133.86 22.0499Z" fill="#5B5D6E"/>
<path d="M75.5054 28.1906H74.9123C73.5558 28.1906 72.4563 29.2903 72.4563 30.6466V79.7516C72.4563 80.6755 72.9772 81.5188 73.8057 81.9276C77.1056 83.5573 79.2176 87.2115 78.4328 91.2953C77.8113 94.5287 75.2585 97.2119 72.0503 97.9532C66.4123 99.2559 61.4037 95.0097 61.4037 89.5937C61.4037 86.2096 63.3716 83.3115 66.2173 81.9164C67.0387 81.5139 67.544 80.6662 67.544 79.7516V30.6466C67.544 29.29 66.4443 28.1906 65.088 28.1906H64.4949C63.3932 28.1906 62.4269 28.9236 62.1297 29.9846L45.9982 87.5962C45.6441 88.8606 45.8035 90.2018 46.4549 91.342C48.7228 95.3112 54.4494 105.706 60.1757 119.068H79.8249C85.5515 105.706 91.2779 95.311 93.5455 91.342C94.1971 90.2021 94.3559 88.8606 94.0021 87.5962L77.8712 29.9846C77.574 28.9236 76.6071 28.1906 75.5054 28.1906Z" fill="#C7CFE2"/>
<path d="M72.4561 30.6465V79.7515C72.4561 80.6754 72.977 81.5187 73.8055 81.9275C76.2637 83.1416 78.0585 85.4805 78.4919 88.2824L74.9123 28.1902C73.5558 28.1905 72.4561 29.2902 72.4561 30.6465Z" fill="#AFB9D2"/>
<path d="M82.2806 131.348H57.7191C56.3626 131.348 55.2631 130.249 55.2631 128.892V121.524C55.2631 120.167 56.3628 119.068 57.7191 119.068H82.2806C83.6371 119.068 84.7366 120.168 84.7366 121.524V128.892C84.7369 130.249 83.6371 131.348 82.2806 131.348Z" fill="url(#paint2_linear_587_1071)"/>
<path d="M65.0877 128.892V121.524C65.0877 120.167 66.1874 119.068 67.5437 119.068H57.7191C56.3626 119.068 55.2631 120.168 55.2631 121.524V128.892C55.2631 130.249 56.3628 131.348 57.7191 131.348H67.5437C66.1874 131.348 65.0877 130.249 65.0877 128.892Z" fill="url(#paint3_linear_587_1071)"/>
<path d="M65.6414 112.431C63.3905 105.203 60.3009 96.6156 58.7281 92.3223C58.0628 90.5064 57.8422 88.5727 58.0727 86.6526L65.088 28.1906H64.4949C63.3932 28.1906 62.4266 28.9236 62.1297 29.9846L45.9982 87.5962C45.6441 88.8606 45.8035 90.2021 46.4551 91.342C48.7228 95.3112 54.4496 105.706 60.1757 119.068H79.8249C80.5479 117.38 81.2708 115.741 81.9872 114.155H67.9837C66.9053 114.155 65.9619 113.46 65.6414 112.431Z" fill="#AFB9D2"/>
<defs>
<linearGradient id="paint0_linear_587_1071" x1="-44.2576" y1="74.8379" x2="141.08" y2="40.7773" gradientUnits="userSpaceOnUse">
<stop stop-color="#61285B"/>
<stop offset="0.432292" stop-color="#45389E"/>
<stop offset="1" stop-color="#1E50FF"/>
</linearGradient>
<linearGradient id="paint1_linear_587_1071" x1="10.0941" y1="23.276" x2="71.172" y2="-25.7657" gradientUnits="userSpaceOnUse">
<stop stop-color="#61285B"/>
<stop offset="0.432292" stop-color="#45389E"/>
<stop offset="1" stop-color="#1E50FF"/>
</linearGradient>
<linearGradient id="paint2_linear_587_1071" x1="44.5321" y1="131.345" x2="85.5191" y2="122.95" gradientUnits="userSpaceOnUse">
<stop stop-color="#61285B"/>
<stop offset="0.432292" stop-color="#45389E"/>
<stop offset="1" stop-color="#1E50FF"/>
</linearGradient>
<linearGradient id="paint3_linear_587_1071" x1="50.7918" y1="131.344" x2="68.4575" y2="129.837" gradientUnits="userSpaceOnUse">
<stop stop-color="#61285B"/>
<stop offset="0.432292" stop-color="#45389E"/>
<stop offset="1" stop-color="#1E50FF"/>
</linearGradient>
</defs>
</svg>
