<svg width="30" height="41" viewBox="0 0 30 41" fill="none" xmlns="http://www.w3.org/2000/svg">
<path d="M18.75 0.558594C19.0815 0.558594 19.3995 0.69029 19.6339 0.92471C19.8683 1.15913 20 1.47707 20 1.80859C20 2.14011 20.1317 2.45806 20.3661 2.69248C20.6005 2.9269 20.9185 3.05859 21.25 3.05859C21.5815 3.05859 21.8995 3.19029 22.1339 3.42471C22.3683 3.65913 22.5 3.97707 22.5 4.30859V5.55859C22.5 5.89011 22.3683 6.20806 22.1339 6.44248C21.8995 6.6769 21.5815 6.80859 21.25 6.80859H8.75C8.41848 6.80859 8.10054 6.6769 7.86612 6.44248C7.6317 6.20806 7.5 5.89011 7.5 5.55859V4.30859C7.5 3.97707 7.6317 3.65913 7.86612 3.42471C8.10054 3.19029 8.41848 3.05859 8.75 3.05859C9.08152 3.05859 9.39946 2.9269 9.63388 2.69248C9.8683 2.45806 10 2.14011 10 1.80859C10 1.47707 10.1317 1.15913 10.3661 0.92471C10.6005 0.69029 10.9185 0.558594 11.25 0.558594L18.75 0.558594Z" fill="url(#paint0_linear_582_378)"/>
<path d="M2.5 6.80859C2.5 6.47707 2.6317 6.15913 2.86612 5.92471C3.10054 5.69029 3.41848 5.55859 3.75 5.55859H5C5.33152 5.55859 5.64946 5.4269 5.88388 5.19248C6.1183 4.95806 6.25 4.64011 6.25 4.30859C6.25 3.97707 6.1183 3.65913 5.88388 3.42471C5.64946 3.19029 5.33152 3.05859 5 3.05859H3.75C2.75544 3.05859 1.80161 3.45368 1.09835 4.15694C0.395088 4.8602 0 5.81403 0 6.80859V36.8086C0 37.8032 0.395088 38.757 1.09835 39.4602C1.80161 40.1635 2.75544 40.5586 3.75 40.5586H26.25C27.2446 40.5586 28.1984 40.1635 28.9017 39.4602C29.6049 38.757 30 37.8032 30 36.8086V6.80859C30 5.81403 29.6049 4.8602 28.9017 4.15694C28.1984 3.45368 27.2446 3.05859 26.25 3.05859H25C24.6685 3.05859 24.3505 3.19029 24.1161 3.42471C23.8817 3.65913 23.75 3.97707 23.75 4.30859C23.75 4.64011 23.8817 4.95806 24.1161 5.19248C24.3505 5.4269 24.6685 5.55859 25 5.55859H26.25C26.5815 5.55859 26.8995 5.69029 27.1339 5.92471C27.3683 6.15913 27.5 6.47707 27.5 6.80859V36.8086C27.5 37.1401 27.3683 37.4581 27.1339 37.6925C26.8995 37.9269 26.5815 38.0586 26.25 38.0586H3.75C3.41848 38.0586 3.10054 37.9269 2.86612 37.6925C2.6317 37.4581 2.5 37.1401 2.5 36.8086V6.80859Z" fill="url(#paint1_linear_582_378)"/>
<path d="M22.1351 20.1936C22.3698 19.9589 22.5017 19.6405 22.5017 19.3086C22.5017 18.9766 22.3698 18.6583 22.1351 18.4236C21.9004 18.1889 21.5821 18.057 21.2501 18.057C20.9182 18.057 20.5998 18.1889 20.3651 18.4236L13.7501 25.0411L10.8851 22.1736C10.6504 21.9389 10.3321 21.807 10.0001 21.807C9.66818 21.807 9.34983 21.9389 9.11511 22.1736C8.8804 22.4083 8.74854 22.7266 8.74854 23.0586C8.74854 23.3905 8.8804 23.7089 9.11511 23.9436L12.8651 27.6936C12.9812 27.81 13.1192 27.9024 13.271 27.9654C13.4229 28.0284 13.5857 28.0608 13.7501 28.0608C13.9145 28.0608 14.0773 28.0284 14.2292 27.9654C14.3811 27.9024 14.519 27.81 14.6351 27.6936L22.1351 20.1936V20.1936Z" fill="url(#paint2_linear_582_378)"/>
<defs>
<linearGradient id="paint0_linear_582_378" x1="2.03867" y1="6.80665" x2="22.8983" y2="2.53426" gradientUnits="userSpaceOnUse">
<stop stop-color="#61285B"/>
<stop offset="0.432292" stop-color="#45389E"/>
<stop offset="1" stop-color="#1E50FF"/>
</linearGradient>
<linearGradient id="paint1_linear_582_378" x1="-10.9227" y1="40.5469" x2="32.345" y2="37.593" gradientUnits="userSpaceOnUse">
<stop stop-color="#61285B"/>
<stop offset="0.432292" stop-color="#45389E"/>
<stop offset="1" stop-color="#1E50FF"/>
</linearGradient>
<linearGradient id="paint2_linear_582_378" x1="3.74117" y1="28.0577" x2="23.3986" y2="25.7514" gradientUnits="userSpaceOnUse">
<stop stop-color="#61285B"/>
<stop offset="0.432292" stop-color="#45389E"/>
<stop offset="1" stop-color="#1E50FF"/>
</linearGradient>
</defs>
</svg>
