<svg width="40" height="41" viewBox="0 0 40 41" fill="none" xmlns="http://www.w3.org/2000/svg">
<g clip-path="url(#clip0_582_357)">
<path d="M37.0096 35.1413L32.2655 23.982C33.9422 21.5688 34.9268 18.6402 34.9268 15.4856C34.9268 7.25483 28.2306 0.558594 19.9998 0.558594C11.7692 0.558594 5.07299 7.25483 5.07299 15.4855C5.07299 18.6402 6.05752 21.5686 7.73424 23.9818L2.99019 35.1412C2.76308 35.6753 2.80245 36.1881 3.09831 36.548C3.39417 36.9079 3.88971 37.0456 4.4576 36.9264L8.08072 36.1647C8.509 36.0746 9.11072 36.3304 9.34314 36.7013L11.3085 39.839C11.5976 40.3002 12.0052 40.5586 12.4381 40.5586C12.4667 40.5586 12.4954 40.5574 12.5242 40.5552C12.9888 40.5184 13.3852 40.1912 13.6124 39.657L17.6234 30.2224C18.3975 30.3468 19.1911 30.4124 19.9998 30.4124C20.8086 30.4124 21.6022 30.3468 22.3763 30.2224L26.3873 39.657C26.6144 40.1911 27.0111 40.5185 27.4756 40.5552C27.5044 40.5574 27.5332 40.5586 27.5618 40.5586C27.9944 40.5586 28.4022 40.3003 28.6912 39.839L30.6565 36.7013C30.889 36.3303 31.4907 36.0743 31.9191 36.1646L35.5421 36.9263C36.1101 37.0456 36.6056 36.9078 36.9014 36.5479C37.1972 36.1881 37.2367 35.6753 37.0096 35.1413ZM6.57729 35.1817L4.19604 35.6823C4.1751 35.6867 4.1562 35.69 4.13925 35.6923C4.14487 35.6762 4.15159 35.6583 4.16011 35.6385L8.624 25.1382C9.10228 25.701 9.62135 26.2282 10.1767 26.7148L6.57729 35.1817ZM8.08494 34.8847L11.2073 27.5399C11.8289 27.9946 12.4865 28.4029 13.1756 28.7586L10.2063 35.743C9.69213 35.167 8.85158 34.8251 8.08494 34.8847ZM12.4425 39.1596C12.4342 39.1794 12.426 39.1967 12.4182 39.212C12.4081 39.1981 12.3974 39.1823 12.386 39.1641L11.0442 37.0219L14.33 29.2927C14.9827 29.5617 15.6582 29.7859 16.3531 29.9611L12.4425 39.1596ZM19.9998 29.1412C12.4701 29.1412 6.34424 23.0153 6.34424 15.4856C6.34424 7.95585 12.4702 1.82984 19.9998 1.82984C27.5295 1.82984 33.6556 7.95577 33.6556 15.4856C33.6556 23.0154 27.5297 29.1412 19.9998 29.1412ZM27.6137 39.1641C27.6024 39.1823 27.5916 39.1981 27.5815 39.2119C27.5737 39.1966 27.5656 39.1792 27.5572 39.1595L23.6467 29.961C24.3416 29.7859 25.0172 29.5616 25.6698 29.2925L28.9557 37.0217L27.6137 39.1641ZM29.7934 35.743L26.8242 28.7586C27.5133 28.4029 28.1708 27.9946 28.7924 27.54L31.9149 34.8846C31.1481 34.8247 30.3077 35.1668 29.7934 35.743ZM35.8036 35.6823L33.4224 35.1817L29.8228 26.7149C30.3784 26.2283 30.8973 25.7011 31.3756 25.1383L35.8395 35.6386C35.848 35.6583 35.8547 35.6762 35.8603 35.6924C35.8435 35.69 35.8246 35.6868 35.8036 35.6823Z" fill="url(#paint0_linear_582_357)"/>
<path d="M19.9998 7.44128C15.5642 7.44128 11.9556 11.0499 11.9556 15.4856C11.9556 19.9212 15.5642 23.5298 19.9998 23.5298C24.4355 23.5298 28.0442 19.9212 28.0442 15.4856C28.0442 11.0499 24.4355 7.44128 19.9998 7.44128ZM19.9998 22.2586C16.2652 22.2586 13.2268 19.2202 13.2268 15.4856C13.2268 11.751 16.2652 8.71261 19.9998 8.71261C23.7345 8.71261 26.773 11.751 26.773 15.4856C26.773 19.2202 23.7346 22.2586 19.9998 22.2586Z" fill="url(#paint1_linear_582_357)"/>
<path d="M19.9999 4.14209C13.7451 4.14209 8.65649 9.23067 8.65649 15.4855C8.65649 21.7403 13.7451 26.8288 19.9999 26.8288C26.2547 26.8288 31.3435 21.7403 31.3435 15.4855C31.3435 9.23067 26.2547 4.14209 19.9999 4.14209ZM19.9999 25.5576C14.446 25.5576 9.92766 21.0393 9.92766 15.4854C9.92766 9.93161 14.446 5.41318 19.9999 5.41318C25.5538 5.41318 30.0722 9.93153 30.0722 15.4854C30.0722 21.0393 25.5538 25.5576 19.9999 25.5576Z" fill="url(#paint2_linear_582_357)"/>
</g>
<defs>
<linearGradient id="paint0_linear_582_357" x1="-9.6481" y1="40.5462" x2="39.8031" y2="36.9262" gradientUnits="userSpaceOnUse">
<stop stop-color="#61285B"/>
<stop offset="0.432292" stop-color="#45389E"/>
<stop offset="1" stop-color="#1E50FF"/>
</linearGradient>
<linearGradient id="paint1_linear_582_357" x1="6.09788" y1="23.5248" x2="29.2414" y2="21.5497" gradientUnits="userSpaceOnUse">
<stop stop-color="#61285B"/>
<stop offset="0.432292" stop-color="#45389E"/>
<stop offset="1" stop-color="#1E50FF"/>
</linearGradient>
<linearGradient id="paint2_linear_582_357" x1="0.396421" y1="26.8218" x2="33.0316" y2="24.0367" gradientUnits="userSpaceOnUse">
<stop stop-color="#61285B"/>
<stop offset="0.432292" stop-color="#45389E"/>
<stop offset="1" stop-color="#1E50FF"/>
</linearGradient>
<clipPath id="clip0_582_357">
<rect width="40" height="40" fill="white" transform="translate(0 0.558594)"/>
</clipPath>
</defs>
</svg>
