<svg width="123" height="32" viewBox="0 0 123 32" fill="none" xmlns="http://www.w3.org/2000/svg">
<g clip-path="url(#clip0_864_3)">
<path d="M14.7366 0.172641C10.8285 0.172641 7.42279 2.71448 5.06365 6.35448C2.40265 10.4552 1.00464 15.7673 1.00464 20.8629C1.00464 22.2648 1.14365 23.5814 1.42166 24.7809C1.55816 25.3614 1.73398 25.932 1.9479 26.4887C2.15277 27.0113 2.39913 27.5166 2.68464 27.9999C4.06677 30.3014 6.29485 31.8265 9.81967 31.8265C12.7924 31.8265 15.0483 30.4941 17.6934 26.9732C19.2027 24.9636 19.9652 23.7443 22.9817 18.3945L24.4829 15.7355L24.8523 15.0901C24.9734 15.2887 25.0926 15.4793 25.2157 15.6858L29.4892 22.8248C30.9269 25.2277 32.7956 27.9006 34.3941 29.4058C36.4713 31.3658 38.3499 31.8285 40.4707 31.8285C42.6055 31.8285 44.1961 31.1236 45.3459 30.1545C45.9879 29.6064 46.5319 28.953 46.9544 28.2223C48.0307 26.3576 48.6642 23.9985 48.6642 20.7854C48.6642 15.384 47.3119 10.1474 44.5258 5.99108C41.98 2.1942 38.6537 0.172641 35.1607 0.172641C33.0815 0.172641 31.0143 1.10002 29.098 2.77009C27.8032 3.902 26.6018 5.33179 25.4838 6.84101C24.1136 5.10342 22.8327 3.76895 21.5956 2.75817C19.2483 0.839874 16.9984 0.170654 14.7366 0.170654V0.172641ZM34.9124 4.24952C37.1902 4.24952 39.2574 5.75477 40.854 8.21916C43.1019 11.6904 44.1246 16.5497 44.1246 20.9284C44.1246 24.0024 43.3939 26.6873 40.4727 26.6873C39.3209 26.6873 38.4333 26.2305 37.1683 24.6935C36.1834 23.5 34.5014 20.9641 31.5445 16.0393L30.3192 13.9979C29.5229 12.6658 28.6919 11.3547 27.827 10.066C27.9661 9.84952 28.107 9.62115 28.2461 9.41661C30.4702 6.10626 32.452 4.24952 34.9144 4.24952H34.9124ZM14.6551 5.34768C17.1672 5.34768 18.7419 6.91846 19.9672 8.21916C20.5768 8.86853 21.4307 9.94881 22.4177 11.3548L20.3922 14.4646C18.8889 16.7741 16.6549 20.4558 14.7584 23.079C12.3933 26.3536 11.1641 26.6873 9.82166 26.6873C8.78109 26.6873 7.76038 26.2166 7.07528 25.1105C6.55301 24.2646 6.15386 22.8665 6.15386 21.0475C6.15386 16.637 7.40492 12.0419 9.45031 8.95789C10.3519 7.59363 11.3646 6.52328 12.4946 5.91363C13.1557 5.54625 13.8988 5.35159 14.6551 5.34768Z" fill="#C2C2C2"/>
<path fill-rule="evenodd" clip-rule="evenodd" d="M95.0099 19.3004C95.0099 19.3004 95.3539 10.7007 88.3595 10.7007C81.3651 10.7007 79.9892 18.9564 82.3971 22.7402C84.805 26.5241 90.6528 26.9827 94.6659 23.6575L93.0607 21.7083C93.0607 21.7083 90.0795 24.3455 87.0982 23.1989C84.117 22.0522 84.117 19.3004 84.117 19.3004H95.0099ZM84.117 17.3511H92.1434C92.1434 17.3511 92.258 13.3379 88.3595 13.3379C84.461 13.3379 84.117 17.3511 84.117 17.3511Z" fill="#C2C2C2"/>
<path d="M57.5153 25.7214V5.99951H61.2992L67.9496 18.0391L74.6 5.99951H78.1546V25.7214H75.0587V10.8153L69.3255 21.1349H66.459L60.6112 10.8153V25.7214H57.5153Z" fill="#C2C2C2"/>
<path d="M101.89 6.80215H98.9085V11.0447H95.9272V13.7966H98.9085V21.4875C98.9085 23.7185 100.681 25.5458 102.911 25.6134L106.476 25.7214V23.1989H103.724C102.711 23.1989 101.89 22.3775 101.89 21.3643V13.7966H106.476V11.0447H101.89V6.80215Z" fill="#C2C2C2"/>
<path fill-rule="evenodd" clip-rule="evenodd" d="M119.318 11.0446H122.3V25.7214H119.318V23.7722C118.172 25.7214 113.7 27.0974 110.719 24.8041C107.737 22.5109 106.373 15.1306 110.719 12.0766C114.961 9.09538 118.63 11.8473 119.318 12.9939V11.0446ZM119.318 16.0898V20.6763C118.745 22.9695 115.191 24.0015 112.783 22.6256C110.375 21.2496 109.687 16.2045 112.783 14.1405C115.878 12.0766 118.86 14.7139 119.318 16.0898Z" fill="#C2C2C2"/>
</g>
<defs>
<clipPath id="clip0_864_3">
<rect width="122" height="32" fill="white" transform="translate(0.403076 -0.000488281)"/>
</clipPath>
</defs>
</svg>
