<svg width="180" height="32" viewBox="0 0 180 32" fill="none" xmlns="http://www.w3.org/2000/svg">
<g clip-path="url(#clip0_871_31)">
<path d="M26.0869 15.999L26.2169 22.265L22.0869 19.864V28.802L16.6179 32V2.34375e-05L30.2169 7.86502V14.933L22.0869 10.136V13.735L26.0869 15.999ZM1.68591 7.86402L15.2849 -0.000976562V31.999L9.81591 28.801V10.134L1.68591 14.931V7.86402Z" fill="#C2C2C2"/>
<path d="M47.8719 10.623V24.807H45.0399V10.623H39.9519V8.03102H52.9599V10.623H47.8719Z" fill="#C2C2C2"/>
<path d="M67.5163 19.599H57.5083C57.5723 20.527 57.9963 21.279 58.7803 21.855C59.5643 22.415 60.4603 22.695 61.4683 22.695C63.0683 22.695 64.2843 22.191 65.1163 21.183L66.6523 22.863C65.2763 24.287 63.4843 24.999 61.2763 24.999C59.4843 24.999 57.9563 24.407 56.6923 23.223C55.4443 22.023 54.8203 20.423 54.8203 18.423C54.8203 16.407 55.4603 14.807 56.7403 13.623C58.0203 12.439 59.5243 11.847 61.2523 11.847C62.9963 11.847 64.4763 12.375 65.6923 13.431C66.9083 14.471 67.5163 15.911 67.5163 17.751V19.599ZM57.5083 17.487H64.8283C64.8283 16.415 64.4923 15.591 63.8203 15.015C63.1483 14.439 62.3163 14.151 61.3243 14.151C60.3483 14.151 59.4683 14.455 58.6843 15.063C57.9003 15.655 57.5083 16.463 57.5083 17.487Z" fill="#C2C2C2"/>
<path d="M73.1602 17.895V24.807H70.4722V12.039H73.1602V14.367C73.5922 13.583 74.1842 12.967 74.9362 12.519C75.7042 12.071 76.5282 11.847 77.4082 11.847C78.8482 11.847 80.0082 12.287 80.8882 13.167C81.7842 14.047 82.2322 15.319 82.2322 16.983V24.807H79.5442V17.799C79.5442 15.447 78.5682 14.271 76.6162 14.271C75.6882 14.271 74.8802 14.583 74.1922 15.207C73.5042 15.815 73.1602 16.711 73.1602 17.895Z" fill="#C2C2C2"/>
<path d="M95.0838 20.991C95.0838 22.207 94.6438 23.183 93.7638 23.919C92.8838 24.639 91.7558 24.999 90.3798 24.999C89.4518 24.999 88.4838 24.831 87.4758 24.495C86.4838 24.159 85.6038 23.687 84.8358 23.079L86.1318 20.991C87.6198 22.111 89.0598 22.671 90.4518 22.671C91.0598 22.671 91.5398 22.535 91.8918 22.263C92.2438 21.975 92.4198 21.615 92.4198 21.183C92.4198 20.543 91.5718 19.967 89.8758 19.455C89.7478 19.407 89.6518 19.375 89.5878 19.359C86.9318 18.639 85.6038 17.439 85.6038 15.759C85.6038 14.575 86.0598 13.631 86.9718 12.927C87.8998 12.207 89.0998 11.847 90.5718 11.847C92.0438 11.847 93.4358 12.279 94.7478 13.143L93.7398 15.135C92.6998 14.447 91.5718 14.103 90.3558 14.103C89.7158 14.103 89.1958 14.223 88.7958 14.463C88.3958 14.687 88.1958 15.031 88.1958 15.495C88.1958 15.911 88.4038 16.215 88.8198 16.407C89.1078 16.551 89.5078 16.687 90.0198 16.815C90.5478 16.943 91.0118 17.071 91.4118 17.199C91.8118 17.327 92.1958 17.471 92.5638 17.631C92.9478 17.791 93.3558 18.015 93.7878 18.303C94.6518 18.879 95.0838 19.775 95.0838 20.991Z" fill="#C2C2C2"/>
<path d="M101.104 21.447C101.872 22.215 102.84 22.599 104.008 22.599C105.176 22.599 106.136 22.215 106.888 21.447C107.656 20.663 108.04 19.655 108.04 18.423C108.04 17.191 107.656 16.191 106.888 15.423C106.136 14.639 105.176 14.247 104.008 14.247C102.84 14.247 101.872 14.639 101.104 15.423C100.352 16.191 99.9765 17.191 99.9765 18.423C99.9765 19.655 100.352 20.663 101.104 21.447ZM108.808 23.103C107.528 24.367 105.928 24.999 104.008 24.999C102.088 24.999 100.488 24.367 99.2085 23.103C97.9285 21.823 97.2885 20.263 97.2885 18.423C97.2885 16.583 97.9285 15.031 99.2085 13.767C100.488 12.487 102.088 11.847 104.008 11.847C105.928 11.847 107.528 12.487 108.808 13.767C110.088 15.031 110.728 16.583 110.728 18.423C110.728 20.263 110.088 21.823 108.808 23.103Z" fill="#C2C2C2"/>
<path d="M120.481 14.559C119.153 14.559 118.153 14.991 117.481 15.855C116.809 16.719 116.473 17.879 116.473 19.335V24.807H113.785V12.039H116.473V14.607C116.905 13.807 117.489 13.151 118.225 12.639C118.977 12.127 119.769 11.863 120.601 11.847L120.625 14.559C120.577 14.559 120.529 14.559 120.481 14.559Z" fill="#C2C2C2"/>
<path d="M126.54 10.671V15.279H133.98V17.895H126.54V24.807H123.708V8.03102H134.892L134.868 10.671H126.54Z" fill="#C2C2C2"/>
<path d="M140.496 24.807H137.808V6.99902H140.496V24.807Z" fill="#C2C2C2"/>
<path d="M147.37 21.447C148.138 22.215 149.106 22.599 150.274 22.599C151.442 22.599 152.402 22.215 153.154 21.447C153.922 20.663 154.306 19.655 154.306 18.423C154.306 17.191 153.922 16.191 153.154 15.423C152.402 14.639 151.442 14.247 150.274 14.247C149.106 14.247 148.138 14.639 147.37 15.423C146.618 16.191 146.242 17.191 146.242 18.423C146.242 19.655 146.618 20.663 147.37 21.447ZM155.074 23.103C153.794 24.367 152.194 24.999 150.274 24.999C148.354 24.999 146.754 24.367 145.474 23.103C144.194 21.823 143.554 20.263 143.554 18.423C143.554 16.583 144.194 15.031 145.474 13.767C146.754 12.487 148.354 11.847 150.274 11.847C152.194 11.847 153.794 12.487 155.074 13.767C156.354 15.031 156.994 16.583 156.994 18.423C156.994 20.263 156.354 21.823 155.074 23.103Z" fill="#C2C2C2"/>
<path d="M166.026 24.807H162.954L158.538 12.039H161.322L164.49 21.687L167.658 12.039H170.442L173.61 21.687L176.778 12.039H179.562L175.146 24.807H172.074L169.05 16.071L166.026 24.807Z" fill="#C2C2C2"/>
</g>
<defs>
<clipPath id="clip0_871_31">
<rect width="179" height="32.001" fill="white" transform="translate(0.951904 -0.000976562)"/>
</clipPath>
</defs>
</svg>
