<svg width="22" height="19" viewBox="0 0 22 19" fill="none" xmlns="http://www.w3.org/2000/svg">
<path d="M6.92 18.057C8.60914 18.0676 10.2836 17.7428 11.8462 17.1013C13.4088 16.4598 14.8285 15.5144 16.0229 14.3199C17.2174 13.1255 18.1627 11.7058 18.8043 10.1432C19.4458 8.58059 19.7706 6.90615 19.76 5.21701V4.62701C20.6356 3.9855 21.3935 3.19718 22 2.29701C21.1755 2.6576 20.3031 2.89676 19.41 3.00701C20.3569 2.44279 21.0674 1.55468 21.41 0.507009C20.5275 1.03645 19.5598 1.40864 18.55 1.60701C17.8699 0.882376 16.97 0.402065 15.9895 0.240395C15.0089 0.0787254 14.0024 0.244709 13.1257 0.712663C12.249 1.18062 11.551 1.92446 11.1396 2.82909C10.7282 3.73372 10.6264 4.74871 10.85 5.71701C9.05603 5.62895 7.30071 5.16403 5.69836 4.35252C4.096 3.541 2.68254 2.40109 1.55 1.00701C0.978923 1.99818 0.805827 3.16933 1.06576 4.28333C1.32569 5.39733 1.99923 6.37093 2.95 7.00701C2.24861 6.97996 1.56345 6.78811 0.95 6.44701V6.49701C0.943767 7.53284 1.29272 8.53953 1.9387 9.34928C2.58469 10.159 3.48867 10.7229 4.5 10.947C3.84764 11.1225 3.16429 11.1498 2.5 11.027C2.79278 11.9104 3.35168 12.6816 4.10005 13.2348C4.84841 13.788 5.74959 14.0962 6.68 14.117C5.08921 15.3975 3.11209 16.1024 1.07 16.117C0.711953 16.1066 0.354747 16.0766 0 16.027C2.06696 17.3439 4.4692 18.0382 6.92 18.027" fill="url(#paint0_linear_582_467)"/>
<defs>
<linearGradient id="paint0_linear_582_467" x1="-8.00995" y1="18.0517" x2="23.5198" y2="14.7404" gradientUnits="userSpaceOnUse">
<stop stop-color="#61285B"/>
<stop offset="0.432292" stop-color="#45389E"/>
<stop offset="1" stop-color="#1E50FF"/>
</linearGradient>
</defs>
</svg>
