<svg width="96" height="32" viewBox="0 0 96 32" fill="none" xmlns="http://www.w3.org/2000/svg">
<g clip-path="url(#clip0_867_6)">
<path d="M27.8951 25.5995L22.1618 15.9995L27.8951 6.39951L30.6952 15.9995L27.8951 25.5995ZM15.2285 24.6662L8.02848 17.5995H19.4952L25.2285 27.1995L15.2285 24.6662ZM15.2285 7.19951L25.2285 4.66618L19.4952 14.2662H7.89515C7.89515 14.3995 15.2285 7.19951 15.2285 7.19951ZM29.8951 -0.000488281L16.8285 3.33285L14.8285 6.66618H10.9618L1.36182 15.9995L10.9618 25.3328H14.8285L16.6952 28.6662L29.7618 31.9995L33.2285 19.3328L31.3618 15.9995L33.3618 12.6662L29.8951 -0.000488281Z" fill="#C2C2C2"/>
<path d="M63.431 24.4566H66.8415V15.2125C66.8415 14.706 66.7152 10.5272 62.6731 9.89403C58.631 9.26087 56.8626 12.1734 56.8626 12.1734V10.2739H53.7047V24.4566H57.1152V15.5861C57.1152 14.1909 58.2463 13.0598 59.6415 13.0598H60.9047C62.2999 13.0598 63.431 14.1909 63.431 15.5861V24.4566Z" fill="#D9D9D9"/>
<path d="M71.3889 5.25659H68.1047V8.16185H71.3889V5.25659Z" fill="#D9D9D9"/>
<path d="M71.3889 10.1829H68.1047V24.4566H71.3889V10.1829Z" fill="#D9D9D9"/>
<path d="M78.3363 5.25659H75.052V10.1829H72.652V12.7092H75.052V24.4566H78.3363V12.7092H80.8626L79.852 10.1829H78.3363V5.25659Z" fill="#D9D9D9"/>
<path d="M84.7784 10.1829H81.1152L86.5468 23.825L84.1468 29.2566H87.6836L95.2626 10.1829H91.5994L88.1889 19.6566L84.7784 10.1829Z" fill="#D9D9D9"/>
<path d="M42.7152 10.3092H39.3047V19.5303C39.3047 20.0355 39.431 24.204 43.4731 24.8355C47.5152 25.4671 49.2836 22.5619 49.2836 22.5619V24.4566H52.4415V10.3092H49.031V19.1513C49.031 20.5466 47.8999 21.6776 46.5047 21.6776H45.2415C43.8463 21.6776 42.7152 20.5466 42.7152 19.1513V10.3092Z" fill="#D9D9D9"/>
</g>
<defs>
<clipPath id="clip0_867_6">
<rect width="95" height="32" fill="white" transform="translate(0.603088 -0.000488281)"/>
</clipPath>
</defs>
</svg>
