<svg width="132" height="32" viewBox="0 0 132 32" fill="none" xmlns="http://www.w3.org/2000/svg">
<path d="M98.1593 0C98.3386 0 98.5564 0.0775763 98.8126 0.232729C99.0944 0.362022 99.2352 0.724042 99.2352 1.31879V19.8206C99.2352 20.9067 99.1968 21.9151 99.1199 22.8461C99.0431 23.777 98.915 24.6174 98.7357 25.3673C98.377 26.9705 97.8263 28.2376 97.0834 29.1685C96.3405 30.1511 95.3414 30.8752 94.0862 31.3406C92.9334 31.7543 91.486 31.9612 89.7441 31.9612H81.0983C79.3563 31.9612 77.9089 31.7543 76.7561 31.3406C76.1669 31.1079 75.6162 30.8234 75.1038 30.4873C74.5915 30.1253 74.156 29.6857 73.7974 29.1685C73.0032 28.1859 72.4396 26.9188 72.1066 25.3673C71.9273 24.6174 71.7992 23.777 71.7223 22.8461C71.6455 21.9151 71.607 20.9067 71.607 19.8206V1.31879C71.607 0.724042 71.748 0.362022 72.0297 0.232729C72.3115 0.0775763 72.5421 0 72.7214 0H76.2181C76.3974 0 76.6153 0.0775763 76.8714 0.232729C77.1532 0.362022 77.2941 0.724042 77.2941 1.31879V20.4412C77.2941 21.036 77.3069 21.579 77.3325 22.0703C77.3838 22.5616 77.435 22.9883 77.4862 23.3503C77.6399 24.0485 77.8576 24.6303 78.1394 25.0958C78.4468 25.4836 78.8311 25.7681 79.2922 25.9491C79.5484 26.0267 79.843 26.0913 80.176 26.143C80.509 26.1947 80.8805 26.2206 81.2904 26.2206H89.5903C90.0002 26.2206 90.3717 26.1947 90.7047 26.143C91.0377 26.0913 91.3324 26.0267 91.5885 25.9491C92.0496 25.7681 92.4339 25.4836 92.7413 25.0958C92.8694 24.8889 92.9846 24.6432 93.0871 24.3588C93.2152 24.0485 93.3048 23.7123 93.3561 23.3503C93.4073 22.9883 93.4457 22.5616 93.4714 22.0703C93.5226 21.579 93.5482 21.036 93.5482 20.4412V1.31879C93.5482 0.724042 93.6763 0.362022 93.9324 0.232729C94.2142 0.0775763 94.4448 0 94.6241 0H98.1593Z" fill="white"/>
<path d="M125.853 12.8776C127.851 12.8776 129.376 13.5887 130.426 15.0109C131.425 16.4073 131.925 18.3725 131.925 20.9067V24.32C131.925 26.5438 131.438 28.3669 130.464 29.7891C129.465 31.2372 127.903 31.9612 125.776 31.9612H108.446C108.267 31.9612 108.036 31.8966 107.755 31.7673C107.473 31.6121 107.332 31.2372 107.332 30.6424V27.5394C107.332 26.9446 107.473 26.5826 107.755 26.4533C108.036 26.2982 108.267 26.2206 108.446 26.2206H124.854C125.187 26.2206 125.418 26.1689 125.546 26.0655C125.7 25.962 125.815 25.8457 125.892 25.7164C126.122 25.3285 126.238 24.7855 126.238 24.0873V20.7515C126.238 20.2861 126.186 19.9111 126.084 19.6267C126.007 19.3422 125.904 19.1224 125.776 18.9673C125.648 18.8121 125.507 18.7216 125.354 18.6958C125.2 18.644 125.046 18.6182 124.893 18.6182H113.365C112.955 18.6182 112.545 18.6053 112.135 18.5794C111.725 18.5277 111.315 18.4372 110.906 18.3079C110.521 18.1786 110.15 17.9976 109.791 17.7648C109.433 17.5063 109.1 17.183 108.792 16.7952C108.305 16.1228 107.934 15.2566 107.678 14.1964C107.422 13.1362 107.294 11.9337 107.294 10.5891V7.64121C107.294 5.36566 107.793 3.5297 108.792 2.13333C109.791 0.711111 111.341 0 113.442 0H130.003C130.157 0 130.375 0.0775763 130.656 0.232729C130.938 0.362022 131.079 0.724042 131.079 1.31879V4.42182C131.079 5.01657 130.938 5.39152 130.656 5.54667C130.375 5.67596 130.157 5.74061 130.003 5.74061H114.364C114.031 5.74061 113.788 5.79232 113.634 5.89576C113.506 5.99919 113.403 6.11556 113.326 6.24485C113.121 6.65859 113.019 7.20162 113.019 7.87394V10.7442C113.019 11.2097 113.057 11.5846 113.134 11.8691C113.211 12.1535 113.314 12.3733 113.442 12.5285C113.57 12.6836 113.711 12.7871 113.864 12.8388C114.018 12.8646 114.172 12.8776 114.326 12.8776H125.853Z" fill="white"/>
<path d="M26.1679 2.83152C26.9108 3.76242 27.4616 5.0295 27.8203 6.63273C27.974 7.38263 28.0892 8.22303 28.1661 9.15394C28.2685 10.059 28.3198 11.0545 28.3198 12.1406V19.8206C28.3198 20.9067 28.2685 21.9151 28.1661 22.8461C28.0892 23.777 27.974 24.6174 27.8203 25.3673C27.4616 26.9446 26.9108 28.2246 26.1679 29.2073C25.3738 30.2158 24.3747 30.9269 23.1707 31.3406C21.9411 31.7802 20.4937 32 18.8286 32H9.45276C7.76202 32 6.3275 31.7802 5.14911 31.3406C3.9451 30.9269 2.94601 30.2028 2.15188 29.1685C1.38337 28.16 0.832578 26.8929 0.499554 25.3673C0.320234 24.6174 0.192148 23.777 0.115296 22.8461C0.0384446 21.9151 0 20.9067 0 19.8206V12.1406C0 9.91677 0.166531 8.08081 0.499554 6.63273C0.832578 5.10707 1.38337 3.84 2.15188 2.83152C2.94601 1.84889 3.9451 1.12485 5.14911 0.659395C6.37874 0.219798 7.81326 0 9.45276 0H18.8286C20.4937 0 21.9411 0.219798 23.1707 0.659395C24.3747 1.12485 25.3738 1.84889 26.1679 2.83152ZM22.5943 11.4812C22.5943 10.9123 22.5816 10.3952 22.556 9.9297C22.5303 9.43839 22.4791 8.99879 22.4022 8.61091C22.2997 7.88687 22.082 7.30505 21.749 6.86546C21.4928 6.50344 21.1086 6.21899 20.5962 6.01212C20.34 5.93455 20.0454 5.8699 19.7124 5.81818C19.405 5.76646 19.0464 5.74061 18.6365 5.74061H9.64489C9.23501 5.74061 8.86362 5.76646 8.5306 5.81818C8.22319 5.8699 7.94133 5.93455 7.68516 6.01212C7.17281 6.21899 6.78856 6.50344 6.53238 6.86546C6.25059 7.25333 6.03287 7.83515 5.87916 8.61091C5.82793 8.99879 5.77673 9.43839 5.7255 9.9297C5.69988 10.3952 5.68704 10.9123 5.68704 11.4812V20.5188C5.68704 21.0877 5.69988 21.6178 5.7255 22.1091C5.77673 22.5745 5.82793 23.0012 5.87916 23.3891C5.95602 23.7511 6.04566 24.0743 6.14813 24.3588C6.25059 24.6432 6.37868 24.8889 6.53238 25.0958C6.78856 25.5095 7.17281 25.7939 7.68516 25.9491C8.14627 26.1301 8.79952 26.2206 9.64489 26.2206H18.6365C19.4819 26.2206 20.1351 26.1301 20.5962 25.9491C21.1086 25.7939 21.4928 25.5095 21.749 25.0958C22.0564 24.7079 22.2741 24.139 22.4022 23.3891C22.4791 23.0012 22.5303 22.5745 22.556 22.1091C22.5816 21.6178 22.5943 21.0877 22.5943 20.5188V11.4812Z" fill="white"/>
<path d="M63.4986 31.2242C63.5498 30.8105 63.4986 30.5002 63.3449 30.2934L56.6204 18.657C58.516 18.4242 59.9506 17.6355 60.924 16.2909C62.0255 14.6877 62.5892 12.3863 62.6149 9.38665C62.5892 6.38703 62.0255 4.0857 60.924 2.48239C59.7712 0.827462 57.8756 0 55.237 0H37.5227C37.3433 0 37.1129 0.0775568 36.8311 0.232765C36.5493 0.362026 36.4084 0.736932 36.4084 1.35758L36.4087 3.78195C36.4088 4.53167 37.0109 5.13939 37.7536 5.13939H40.2508C40.3572 5.13826 40.4866 5.13939 40.6533 5.13939H52.7302C53.2739 5.13939 53.5458 5.13939 53.7741 5.16714C55.5329 5.38059 56.9193 6.77992 57.1308 8.55521C57.1473 8.6946 57.1538 8.8499 57.1565 9.07206C57.1581 9.21761 57.1581 9.39186 57.1581 9.60909C57.1581 10.3318 57.1581 10.6932 57.1189 10.9681C56.8124 13.1187 54.8154 14.5956 52.6915 14.2428C52.42 14.1976 52.0785 14.0887 51.396 13.871L47.8859 12.7513C47.2372 12.5443 46.9128 12.4409 46.5824 12.3963C46.3158 12.3602 46.0466 12.3527 45.7788 12.3734C45.7004 12.3794 45.6222 12.388 45.5441 12.399C45.2139 12.4453 44.89 12.5504 44.2424 12.7606L41.9529 13.5038C41.4822 13.6566 41.2467 13.733 41.0615 13.7734C40.7891 13.8328 40.5176 13.8615 40.2508 13.8618V13.8667H37.7533C37.0105 13.8667 36.4084 14.4745 36.4084 15.2242V30.6424C36.4084 31.2372 36.5493 31.6121 36.8311 31.7672C36.967 31.842 37.0908 31.8988 37.2026 31.9375C37.3231 31.9792 37.4298 32 37.5227 32H41.0195C41.1989 32 41.4165 31.9224 41.6728 31.7672C41.9544 31.6121 42.0953 31.2372 42.0953 30.6424C42.0953 30.6424 41.922 21.1778 42.0953 20.0919C42.2687 19.0061 44.9347 17.9138 46.1593 17.907C48.6314 17.8934 49.9779 19.4324 50.3982 20.0919C50.8184 20.7515 57.1583 31.2242 57.1583 31.2242C57.1968 31.2889 57.2321 31.3504 57.2642 31.4085C57.2962 31.4667 57.3249 31.5216 57.3505 31.5733C57.4274 31.6509 57.5041 31.7155 57.5811 31.7672C57.7604 31.9224 58.0293 32 58.388 32H62.6149C63.1271 32 63.4217 31.7414 63.4986 31.2242Z" fill="white"/>
</svg>
