<svg width="140" height="141" viewBox="0 0 140 141" fill="none" xmlns="http://www.w3.org/2000/svg">
<path d="M70.3194 45.1943C68.7832 45.1943 67.5377 43.9487 67.5377 42.4126C67.5377 32.4326 73.2288 27.4271 78.2502 23.0105C82.5347 19.242 86.2348 15.9873 86.2348 9.95636C86.2348 8.42019 87.4803 7.17468 89.0165 7.17468C90.5527 7.17468 91.7982 8.42019 91.7982 9.95636C91.7982 18.5029 86.5523 23.1169 81.9244 27.1878C77.1901 31.352 73.1011 34.9485 73.1011 42.4126C73.1011 43.949 71.8556 45.1943 70.3194 45.1943Z" fill="#597B91"/>
<path d="M133.173 59.5122C132.889 58.8347 132.611 58.1675 132.335 57.5118C129.514 47.1892 120.07 39.6011 108.852 39.6011H31.3122C20.6393 39.6011 11.5713 46.4704 8.28571 56.0281C7.79434 57.1517 7.31391 58.3162 6.8127 59.5122C-1.01991 78.1686 0.459929 94.6003 0.459929 117.045C0.459929 131.266 17.9031 134.671 25.1568 123.54C27.1936 120.414 34.6623 110.049 42.0049 98.7653C44.2739 99.9802 46.8085 100.614 49.3823 100.611C62.268 100.611 62.3861 90.3926 70.6831 90.3926C70.9127 90.3926 71.111 90.3738 71.2876 90.3423C71.4643 90.3738 71.6622 90.3926 71.8922 90.3926C80.1894 90.3926 80.3075 100.611 93.193 100.611C95.1344 100.611 96.9921 100.255 98.7077 99.6094C105.929 110.563 113.131 120.492 115.117 123.54C122.371 134.671 139.814 130.892 139.814 117.045C139.814 94.6003 141.005 78.1686 133.173 59.5122Z" fill="#2B3B47"/>
<path d="M128.706 64.731C128.706 75.8987 119.653 84.9523 108.485 84.9523C97.3169 84.9523 88.2637 75.899 88.2637 64.731C88.2637 53.563 97.3169 44.5098 108.485 44.5098C119.653 44.5098 128.706 53.563 128.706 64.731ZM32.7551 44.5098C21.5873 44.5098 12.5338 53.563 12.5338 64.731C12.5338 75.899 21.5871 84.9523 32.7551 84.9523C43.9231 84.9523 52.9763 75.899 52.9763 64.731C52.9763 53.563 43.9228 44.5098 32.7551 44.5098Z" fill="#132028"/>
<path d="M108.852 80.3747C111.822 80.3747 114.229 77.9674 114.229 74.9978C114.229 72.0283 111.822 69.621 108.852 69.621C105.883 69.621 103.475 72.0283 103.475 74.9978C103.475 77.9674 105.883 80.3747 108.852 80.3747Z" fill="url(#paint0_linear_589_1126)"/>
<path d="M108.852 60.2382C111.822 60.2382 114.229 57.8309 114.229 54.8614C114.229 51.8918 111.822 49.4845 108.852 49.4845C105.883 49.4845 103.475 51.8918 103.475 54.8614C103.475 57.8309 105.883 60.2382 108.852 60.2382Z" fill="#FFB636"/>
<path d="M98.784 70.3065C101.754 70.3065 104.161 67.8992 104.161 64.9296C104.161 61.96 101.754 59.5527 98.784 59.5527C95.8144 59.5527 93.4071 61.96 93.4071 64.9296C93.4071 67.8992 95.8144 70.3065 98.784 70.3065Z" fill="#FF473E"/>
<path d="M118.92 70.3065C121.89 70.3065 124.297 67.8992 124.297 64.9296C124.297 61.96 121.89 59.5527 118.92 59.5527C115.951 59.5527 113.544 61.96 113.544 64.9296C113.544 67.8992 115.951 70.3065 118.92 70.3065Z" fill="#00B89C"/>
<path d="M65.6425 74.16H58.9173C58.3594 74.16 57.8243 73.9383 57.4297 73.5438C57.0352 73.1492 56.8135 72.6141 56.8135 72.0561C56.8135 71.4982 57.0352 70.963 57.4297 70.5685C57.8243 70.174 58.3594 69.9523 58.9173 69.9523H65.6425C66.2005 69.9523 66.7356 70.174 67.1302 70.5685C67.5247 70.963 67.7464 71.4982 67.7464 72.0561C67.7464 72.6141 67.5247 73.1492 67.1302 73.5438C66.7356 73.9383 66.2005 74.16 65.6425 74.16ZM85.157 72.0561C85.157 71.4982 84.9353 70.963 84.5408 70.5685C84.1462 70.174 83.6111 69.9523 83.0531 69.9523H76.3279C75.77 69.9523 75.2348 70.174 74.8403 70.5685C74.4457 70.963 74.2241 71.4982 74.2241 72.0561C74.2241 72.6141 74.4457 73.1492 74.8403 73.5438C75.2348 73.9383 75.77 74.16 76.3279 74.16H83.0531C83.6111 74.1599 84.1461 73.9382 84.5407 73.5437C84.9352 73.1492 85.1569 72.6141 85.157 72.0561ZM49.4351 75.5988C44.2696 75.5988 40.0819 79.7862 40.0819 84.952C40.0819 90.1175 44.2696 94.3052 49.4351 94.3052C54.6006 94.3052 58.7883 90.1175 58.7883 84.952C58.788 79.7865 54.6006 75.5988 49.4351 75.5988ZM91.204 75.5988C86.0385 75.5988 81.8508 79.7862 81.8508 84.952C81.8508 90.1175 86.0385 94.3052 91.204 94.3052C96.3695 94.3052 100.557 90.1175 100.557 84.952C100.557 79.7865 96.3698 75.5988 91.204 75.5988ZM25.1779 59.8824H17.8902C17.0415 59.8824 16.3535 60.8138 16.3535 61.9627V67.0771C16.3535 68.2261 17.0415 69.1574 17.8902 69.1574H25.1779C25.5503 69.1574 25.9102 68.9742 26.1904 68.6423L28.3479 66.0851C29.047 65.2563 29.047 63.7836 28.3479 62.955L26.1904 60.3979C25.9099 60.0656 25.5503 59.8824 25.1779 59.8824ZM37.3926 57.4699V50.1822C37.3926 49.3335 36.4613 48.6455 35.3123 48.6455H30.1979C29.0489 48.6455 28.1176 49.3335 28.1176 50.1822V57.4699C28.1176 57.8423 28.3008 58.2022 28.6328 58.4824L31.19 60.6398C32.0188 61.339 33.4915 61.339 34.32 60.6398L36.8772 58.4824C37.2094 58.2022 37.3926 57.8423 37.3926 57.4699ZM40.3323 69.5793H47.62C48.4688 69.5793 49.1567 68.648 49.1567 67.499V62.3846C49.1567 61.2357 48.4688 60.3043 47.62 60.3043H40.3323C39.9599 60.3043 39.6001 60.4875 39.3198 60.8195L37.1621 63.3767C36.4629 64.2055 36.4629 65.6782 37.1621 66.5067L39.3198 69.0639C39.6001 69.3961 39.9599 69.5793 40.3323 69.5793ZM28.1176 71.9919V79.2795C28.1176 80.1283 29.0489 80.8162 30.1979 80.8162H35.3123C36.4613 80.8162 37.3926 80.1283 37.3926 79.2795V71.9919C37.3926 71.6195 37.2094 71.2596 36.8775 70.9793L34.3203 68.8219C33.4915 68.1227 32.0188 68.1227 31.1902 68.8219L28.633 70.9793C28.3005 71.2599 28.1176 71.6195 28.1176 71.9919Z" fill="#597B91"/>
<defs>
<linearGradient id="paint0_linear_589_1126" x1="99.56" y1="80.3714" x2="115.029" y2="79.0512" gradientUnits="userSpaceOnUse">
<stop stop-color="#61285B"/>
<stop offset="0.432292" stop-color="#45389E"/>
<stop offset="1" stop-color="#1E50FF"/>
</linearGradient>
</defs>
</svg>
